<svg width="611" height="624" viewBox="0 0 611 624" fill="none" xmlns="http://www.w3.org/2000/svg">
<path d="M376.726 244.103L201.63 160.269L226.877 383.265L376.726 244.103ZM375.503 244.29L227.411 381.821L202.459 161.439L375.503 244.29Z" fill="#00FF87"/>
<path d="M447.089 426.698L376.725 244.103L226.877 383.265L447.089 426.698ZM445.99 425.77L228.351 382.845L376.447 245.309L445.99 425.77Z" fill="#00FF87"/>
<path d="M286.585 558.789L226.877 383.265L124.193 483.617L286.585 558.789ZM285.407 557.475L125.401 483.408L226.576 384.531L285.407 557.475Z" fill="#00FF87"/>
<path d="M447.089 426.697L226.877 383.265L286.585 558.789L447.089 426.697ZM445.51 427.096L286.917 557.614L227.92 384.182L445.51 427.096Z" fill="#00FF87"/>
<path d="M226.877 383.265L58.8887 308.612L124.194 483.616L226.877 383.265ZM225.658 383.485L124.47 482.374L60.1173 309.92L225.658 383.485Z" fill="#00FF87"/>
<path d="M124.194 483.616L58.8886 308.612L42.6147 432.336L124.194 483.616ZM122.827 481.935L43.3601 431.983L59.2127 311.461L122.827 481.935Z" fill="#00FF87"/>
<path d="M226.877 383.265L201.63 160.269L58.8887 308.612L226.877 383.265ZM226.053 382.137L60.0783 308.378L201.108 161.814L226.053 382.137Z" fill="#00FF87"/>
<path d="M393.709 83.1828L201.63 160.269L376.726 244.103L393.709 83.1828ZM392.899 84.2588L376.141 243.051L203.36 160.326L392.899 84.2588Z" fill="#00FF87"/>
<path d="M539.092 238.887L393.709 83.1828L376.726 244.103L539.092 238.887ZM537.537 238.239L377.497 243.38L394.238 84.7675L537.537 238.239Z" fill="#00FF87"/>
<path d="M575.865 414.837L539.092 238.888L447.089 426.698L575.865 414.837ZM575.028 414.214L448.257 425.889L538.828 241.004L575.028 414.214Z" fill="#00FF87"/>
<path d="M539.092 238.888L376.726 244.103L447.089 426.698L539.092 238.888ZM537.961 239.621L447.166 424.966L377.724 244.768L537.961 239.621Z" fill="#00FF87"/>
<path d="M539.092 238.887L521.774 108.516L393.709 83.1828L539.092 238.887ZM538.12 236.829L395.689 84.2854L521.154 109.104L538.12 236.829Z" fill="#00FF87"/>
<path d="M596.226 258.974L521.774 108.516L539.093 238.887L596.226 258.974ZM594.847 257.751L539.722 238.37L523.013 112.582L594.847 257.751Z" fill="#00FF87"/>
<path d="M596.225 258.974L539.092 238.887L575.865 414.836L596.225 258.974ZM595.465 259.446L575.708 410.697L540.023 239.953L595.465 259.446Z" fill="#00FF87"/>
<path d="M575.865 414.836L447.089 426.697L459.672 546.686L575.865 414.836ZM574.187 415.691L460.195 545.041L447.852 427.327L574.187 415.691Z" fill="#00FF87"/>
<path d="M575.865 414.836L459.672 546.686L503.561 521.768L575.865 414.836ZM569.214 423.436L503.08 521.241L462.936 544.032L569.214 423.436Z" fill="#00FF87"/>
<path d="M459.672 546.686L447.09 426.697L286.586 558.789L459.672 546.686ZM458.908 546.041L288.71 557.941L446.537 428.054L458.908 546.041Z" fill="#00FF87"/>
<path d="M459.672 546.686L286.586 558.789L347.24 601.095L459.672 546.686ZM456.115 547.634L347.303 600.291L288.602 559.347L456.115 547.634Z" fill="#00FF87"/>
<path d="M347.24 601.095L286.586 558.789L167.669 570.405L347.24 601.095ZM344.286 599.883L172.911 570.593L286.4 559.507L344.286 599.883Z" fill="#00FF87"/>
<path d="M286.585 558.789L124.193 483.617L167.669 570.405L286.585 558.789ZM283.967 558.343L168.073 569.665L125.704 485.084L283.967 558.343Z" fill="#00FF87"/>
<path d="M167.669 570.405L124.194 483.617L42.6147 432.336L167.669 570.405ZM164.775 566.173L46.5203 435.613L123.662 484.106L164.775 566.173Z" fill="#00FF87"/>
<path d="M58.8887 308.612L23.1567 250.373L42.6149 432.336L58.8887 308.612ZM58.1708 308.767L42.6858 426.487L24.1723 253.355L58.1708 308.767Z" fill="#00FF87"/>
<path d="M83.9162 141.158L23.1567 250.373L58.8899 308.612L83.9162 141.158ZM82.6681 144.831L58.4857 306.628L23.9605 250.356L82.6681 144.831Z" fill="#00FF87"/>
<path d="M201.63 160.269L83.9159 141.158L58.8896 308.612L201.63 160.269ZM200.208 160.746L59.895 306.564L84.4964 141.96L200.208 160.746Z" fill="#00FF87"/>
<path d="M224.452 34.3285L83.916 141.158L201.63 160.269L224.452 34.3285ZM223.453 35.9628L201.07 159.472L85.6289 140.73L223.453 35.9628Z" fill="#00FF87"/>
<path d="M224.452 34.3286L115.203 100.349L83.916 141.158L224.452 34.3286ZM213.628 41.6835L87.619 137.471L115.671 100.879L213.628 41.6835Z" fill="#00FF87"/>
<path d="M393.709 83.1826L224.452 34.3285L201.63 160.269L393.709 83.1826ZM391.569 83.2898L202.536 159.155L224.996 35.2108L391.569 83.2898Z" fill="#00FF87"/>
<path d="M393.709 83.1826L380.967 23.3396L224.452 34.3286L393.709 83.1826ZM392.79 82.1919L228.422 34.7495L380.416 24.0777L392.79 82.1919Z" fill="#00FF87"/>
<path d="M521.774 108.516L380.967 23.3396L393.71 83.1827L521.774 108.516ZM518.031 107.065L394.29 82.5864L381.978 24.7652L518.031 107.065Z" fill="#00FF87"/>
<path d="M235.161 382.635C235.507 387.244 232.078 391.262 227.503 391.61C222.927 391.958 218.938 388.505 218.593 383.896C218.248 379.287 221.676 375.269 226.251 374.921C230.827 374.573 234.816 378.027 235.161 382.635Z" fill="#00FF87"/>
<path d="M209.914 159.64C210.26 164.248 206.83 168.267 202.255 168.615C197.681 168.963 193.692 165.509 193.346 160.9C193 156.292 196.428 152.273 201.004 151.925C205.579 151.577 209.568 155.031 209.914 159.64Z" fill="#00FF87"/>
<path d="M385.01 243.472C385.356 248.081 381.927 252.099 377.351 252.447C372.777 252.795 368.788 249.341 368.442 244.732C368.096 240.125 371.524 236.105 376.1 235.758C380.675 235.41 384.664 238.863 385.01 243.472Z" fill="#00FF87"/>
<path d="M455.375 426.067C455.72 430.675 452.291 434.693 447.716 435.042C443.14 435.39 439.151 431.936 438.805 427.327C438.459 422.72 441.889 418.701 446.464 418.352C451.04 418.005 455.029 421.458 455.375 426.067Z" fill="#00FF87"/>
<path d="M294.87 558.158C295.215 562.767 291.786 566.785 287.212 567.133C282.636 567.481 278.646 564.027 278.301 559.418C277.956 554.81 281.385 550.791 285.959 550.444C290.535 550.096 294.524 553.549 294.87 558.158Z" fill="#00FF87"/>
<path d="M132.478 482.987C132.824 487.595 129.396 491.613 124.82 491.961C120.245 492.309 116.256 488.856 115.91 484.248C115.564 479.639 118.993 475.621 123.569 475.272C128.144 474.924 132.133 478.378 132.478 482.987Z" fill="#00FF87"/>
<path d="M294.87 558.158C295.215 562.767 291.786 566.785 287.212 567.133C282.636 567.481 278.646 564.027 278.301 559.418C277.956 554.81 281.385 550.791 285.959 550.444C290.535 550.096 294.524 553.549 294.87 558.158Z" fill="#00FF87"/>
<path d="M455.375 426.067C455.72 430.675 452.291 434.693 447.716 435.042C443.14 435.39 439.151 431.936 438.805 427.327C438.459 422.72 441.889 418.701 446.464 418.352C451.04 418.005 455.029 421.458 455.375 426.067Z" fill="#00FF87"/>
<path d="M67.1739 307.981C67.5197 312.59 64.0904 316.608 59.515 316.957C54.9395 317.305 50.9504 313.851 50.6046 309.242C50.2588 304.633 53.6881 300.615 58.2635 300.268C62.8389 299.92 66.8281 303.373 67.1739 307.981Z" fill="#00FF87"/>
<path d="M132.478 482.987C132.824 487.595 129.396 491.613 124.82 491.961C120.245 492.309 116.256 488.856 115.91 484.248C115.564 479.639 118.993 475.621 123.569 475.272C128.144 474.924 132.133 478.378 132.478 482.987Z" fill="#00FF87"/>
<path d="M132.478 482.987C132.824 487.595 129.396 491.613 124.82 491.961C120.245 492.309 116.256 488.856 115.91 484.248C115.564 479.639 118.993 475.621 123.569 475.272C128.144 474.924 132.133 478.378 132.478 482.987Z" fill="#00FF87"/>
<path d="M50.8988 431.706C51.2446 436.315 47.8165 440.333 43.2411 440.682C38.6656 441.029 34.6764 437.576 34.3307 432.967C33.9849 428.358 37.4142 424.34 41.9896 423.992C46.565 423.644 50.5542 427.098 50.8988 431.706Z" fill="#00FF87"/>
<path d="M401.994 82.552C402.339 87.1608 398.91 91.179 394.335 91.5273C389.759 91.8756 385.77 88.4214 385.424 83.8138C385.08 79.2051 388.508 75.1869 393.083 74.8386C397.659 74.4903 401.648 77.9433 401.994 82.552Z" fill="#00FF87"/>
<path d="M401.994 82.552C402.339 87.1608 398.91 91.179 394.335 91.5273C389.759 91.8756 385.77 88.4214 385.424 83.8138C385.08 79.2051 388.508 75.1869 393.083 74.8386C397.659 74.4903 401.648 77.9433 401.994 82.552Z" fill="#00FF87"/>
<path d="M547.377 238.256C547.723 242.865 544.295 246.883 539.719 247.232C535.144 247.58 531.154 244.126 530.809 239.517C530.463 234.908 533.891 230.89 538.466 230.542C543.042 230.195 547.031 233.648 547.377 238.256Z" fill="#00FF87"/>
<path d="M584.15 414.206C584.495 418.814 581.067 422.833 576.492 423.181C571.916 423.529 567.927 420.075 567.581 415.467C567.235 410.859 570.665 406.84 575.24 406.492C579.814 406.144 583.803 409.598 584.15 414.206Z" fill="#00FF87"/>
<path d="M530.059 107.886C530.404 112.495 526.976 116.513 522.4 116.861C517.825 117.209 513.836 113.756 513.49 109.147C513.144 104.538 516.573 100.52 521.149 100.172C525.724 99.8232 529.713 103.277 530.059 107.886Z" fill="#00FF87"/>
<path d="M401.994 82.552C402.339 87.1608 398.91 91.179 394.335 91.5273C389.759 91.8756 385.77 88.4214 385.424 83.8138C385.08 79.2051 388.508 75.1869 393.083 74.8386C397.659 74.4903 401.648 77.9433 401.994 82.552Z" fill="#00FF87"/>
<path d="M604.51 258.344C604.855 262.953 601.426 266.971 596.852 267.319C592.275 267.668 588.286 264.213 587.941 259.605C587.596 254.996 591.025 250.978 595.599 250.629C600.175 250.281 604.164 253.735 604.51 258.344Z" fill="#00FF87"/>
<path d="M604.51 258.344C604.855 262.953 601.426 266.971 596.852 267.319C592.275 267.668 588.286 264.213 587.941 259.605C587.596 254.996 591.025 250.978 595.599 250.629C600.175 250.281 604.164 253.735 604.51 258.344Z" fill="#00FF87"/>
<path d="M467.955 546.056C468.301 550.664 464.873 554.683 460.298 555.031C455.722 555.379 451.733 551.925 451.387 547.316C451.042 542.708 454.471 538.689 459.046 538.341C463.62 537.993 467.61 541.447 467.955 546.056Z" fill="#00FF87"/>
<path d="M511.845 521.137C512.191 525.746 508.762 529.764 504.187 530.112C499.612 530.46 495.623 527.006 495.277 522.397C494.931 517.789 498.36 513.77 502.935 513.423C507.51 513.075 511.499 516.528 511.845 521.137Z" fill="#00FF87"/>
<path d="M294.87 558.158C295.215 562.767 291.786 566.785 287.212 567.133C282.636 567.481 278.646 564.027 278.301 559.418C277.956 554.81 281.385 550.791 285.959 550.444C290.535 550.096 294.524 553.549 294.87 558.158Z" fill="#00FF87"/>
<path d="M294.87 558.158C295.215 562.767 291.786 566.785 287.212 567.133C282.636 567.481 278.646 564.027 278.301 559.418C277.956 554.81 281.385 550.791 285.959 550.444C290.535 550.096 294.524 553.549 294.87 558.158Z" fill="#00FF87"/>
<path d="M355.524 600.466C355.87 605.074 352.44 609.092 347.866 609.441C343.291 609.788 339.301 606.335 338.956 601.726C338.61 597.117 342.039 593.099 346.613 592.751C351.189 592.403 355.178 595.857 355.524 600.466Z" fill="#00FF87"/>
<path d="M294.87 558.158C295.215 562.767 291.786 566.785 287.212 567.133C282.636 567.481 278.646 564.027 278.301 559.418C277.956 554.81 281.385 550.791 285.959 550.444C290.535 550.096 294.524 553.549 294.87 558.158Z" fill="#00FF87"/>
<path d="M175.953 569.774C176.299 574.383 172.87 578.401 168.294 578.749C163.719 579.098 159.73 575.643 159.384 571.035C159.039 566.426 162.467 562.408 167.043 562.059C171.618 561.712 175.607 565.165 175.953 569.774Z" fill="#00FF87"/>
<path d="M294.87 558.158C295.215 562.767 291.786 566.785 287.212 567.133C282.636 567.481 278.646 564.027 278.301 559.418C277.956 554.81 281.385 550.791 285.959 550.444C290.535 550.096 294.524 553.549 294.87 558.158Z" fill="#00FF87"/>
<path d="M132.478 482.987C132.824 487.595 129.396 491.613 124.82 491.961C120.245 492.309 116.256 488.856 115.91 484.248C115.564 479.639 118.993 475.621 123.569 475.272C128.144 474.924 132.133 478.378 132.478 482.987Z" fill="#00FF87"/>
<path d="M132.478 482.987C132.824 487.595 129.396 491.613 124.82 491.961C120.245 492.309 116.256 488.856 115.91 484.248C115.564 479.639 118.993 475.621 123.569 475.272C128.144 474.924 132.133 478.378 132.478 482.987Z" fill="#00FF87"/>
<path d="M31.4419 249.744C31.7866 254.352 28.3585 258.371 23.783 258.718C19.2076 259.066 15.2184 255.613 14.8726 251.004C14.5269 246.396 17.9561 242.377 22.5315 242.029C27.1058 241.681 31.095 245.135 31.4419 249.744Z" fill="#00FF87"/>
<path d="M92.2012 140.529C92.5459 145.138 89.1177 149.156 84.5423 149.504C79.9669 149.852 75.9777 146.398 75.6319 141.789C75.2861 137.181 78.7154 133.163 83.2908 132.814C87.8663 132.466 91.8554 135.92 92.2012 140.529Z" fill="#00FF87"/>
<path d="M92.2012 140.529C92.5459 145.138 89.1177 149.156 84.5423 149.504C79.9669 149.852 75.9777 146.398 75.6319 141.789C75.2861 137.181 78.7154 133.163 83.2908 132.814C87.8663 132.466 91.8554 135.92 92.2012 140.529Z" fill="#00FF87"/>
<path d="M232.736 33.699C233.082 38.3077 229.652 42.3259 225.077 42.6731C220.502 43.0214 216.512 39.5683 216.167 34.9595C215.821 30.3508 219.25 26.3326 223.826 25.9843C228.401 25.636 232.39 29.0903 232.736 33.699Z" fill="#00FF87"/>
<path d="M92.2012 140.529C92.5459 145.138 89.1177 149.156 84.5423 149.504C79.9669 149.852 75.9777 146.398 75.6319 141.789C75.2861 137.181 78.7154 133.163 83.2908 132.814C87.8663 132.466 91.8554 135.92 92.2012 140.529Z" fill="#00FF87"/>
<path d="M83.9069 149.528C83.7271 149.528 83.5462 149.523 83.3687 149.51C83.1363 149.495 82.9061 149.471 82.6794 149.436C82.4493 149.401 82.2226 149.358 81.9993 149.305C81.4703 149.178 80.9585 149 80.4719 148.776C80.2623 148.679 80.0551 148.575 79.8547 148.46C77.5109 147.135 75.8495 144.691 75.632 141.789C75.6159 141.574 75.6079 141.358 75.6079 141.146C75.6102 136.812 78.9296 133.146 83.2909 132.814C83.5038 132.798 83.7157 132.79 83.9252 132.79C88.2293 132.79 91.8715 136.135 92.2012 140.529C92.2173 140.745 92.2253 140.959 92.2242 141.172C92.2242 141.382 92.2161 141.591 92.2012 141.798C92.1841 142.032 92.1566 142.262 92.12 142.491C92.0833 142.722 92.0375 142.95 91.9814 143.175C91.1421 146.585 88.2109 149.224 84.5423 149.504C84.3294 149.52 84.1175 149.528 83.9069 149.528Z" fill="#00FF87"/>
<path d="M123.487 99.7184C123.833 104.327 120.405 108.345 115.829 108.694C111.254 109.042 107.265 105.588 106.919 100.979C106.573 96.3714 110.003 92.3532 114.578 92.0049C119.152 91.6566 123.143 95.1096 123.487 99.7184Z" fill="#00FF87"/>
<path d="M401.994 82.552C402.339 87.1608 398.91 91.179 394.335 91.5273C389.759 91.8756 385.77 88.4214 385.424 83.8138C385.08 79.2051 388.508 75.1869 393.083 74.8386C397.659 74.4903 401.648 77.9433 401.994 82.552Z" fill="#00FF87"/>
<path d="M401.994 82.552C402.339 87.1608 398.91 91.179 394.335 91.5273C389.759 91.8756 385.77 88.4214 385.424 83.8138C385.08 79.2051 388.508 75.1869 393.083 74.8386C397.659 74.4903 401.648 77.9433 401.994 82.552Z" fill="#00FF87"/>
<path d="M389.251 22.7102C389.597 27.3189 386.169 31.3371 381.593 31.6854C377.018 32.0326 373.029 28.5795 372.683 23.9708C372.337 19.362 375.765 15.3438 380.342 14.9955C384.916 14.6472 388.905 18.1014 389.251 22.7102Z" fill="#00FF87"/>
<path d="M393.701 91.5515C393.641 91.5515 393.581 91.5504 393.523 91.5492C393.289 91.5446 393.059 91.5296 392.831 91.5054C392.6 91.4812 392.371 91.4477 392.146 91.4039C389.361 90.8687 387.033 88.9219 385.989 86.2808C385.904 86.0651 385.827 85.846 385.76 85.6222C385.586 85.0455 385.471 84.4401 385.424 83.8138C385.408 83.597 385.4 83.3824 385.4 83.1691C385.403 78.836 388.722 75.1695 393.083 74.8385C393.296 74.8224 393.508 74.8143 393.718 74.8143C398.023 74.8143 401.664 78.1578 401.994 82.552C402.01 82.7688 402.018 82.9834 402.018 83.1968C402.018 83.5036 402.001 83.8069 401.967 84.1056C401.942 84.3386 401.908 84.5681 401.863 84.7953C401.819 85.0248 401.765 85.252 401.702 85.4746C401.351 86.7121 400.724 87.8412 399.886 88.78C399.731 88.953 399.57 89.1191 399.401 89.2783C399.233 89.4386 399.059 89.5908 398.877 89.7361C397.62 90.7442 396.059 91.3958 394.335 91.5273C394.122 91.5434 393.91 91.5515 393.701 91.5515Z" fill="#00FF87"/>
<path d="M349.166 223.259L147.894 205.163L252.711 413.92L349.166 223.259ZM348.714 223.51L252.712 413.277L148.386 205.499L348.714 223.51Z" fill="white" fill-opacity="0.5"/>
<path d="M483.562 376.076L349.166 223.259L252.711 413.92L483.562 376.076ZM482.999 375.873L253.227 413.54L349.231 223.772L482.999 375.873Z" fill="white" fill-opacity="0.5"/>
<path d="M374.151 563.711L252.711 413.92L188.409 549.448L374.151 563.711ZM373.501 563.37L188.851 549.191L252.775 414.458L373.501 563.37Z" fill="white" fill-opacity="0.5"/>
<path d="M483.562 376.076L252.711 413.919L374.151 563.711L483.562 376.076ZM483.003 376.463L374.112 563.203L253.251 414.126L483.003 376.463Z" fill="white" fill-opacity="0.5"/>
<path d="M252.711 413.92L61.686 402.204L188.409 549.448L252.711 413.92ZM252.266 414.184L188.339 548.922L62.3536 402.536L252.266 414.184Z" fill="white" fill-opacity="0.5"/>
<path d="M188.409 549.448L61.686 402.204L90.2423 529.071L188.409 549.448ZM187.633 548.99L90.4828 528.824L62.2219 403.271L187.633 548.99Z" fill="white" fill-opacity="0.5"/>
<path d="M252.711 413.92L147.894 205.163L61.686 402.204L252.711 413.92ZM252.227 413.599L62.1165 401.94L147.913 205.843L252.227 413.599Z" fill="white" fill-opacity="0.5"/>
<path d="M349.166 223.259L307.935 59.7782L147.894 205.163L349.166 223.259ZM348.787 222.933L148.579 204.932L307.774 60.3168L348.787 222.933Z" fill="white" fill-opacity="0.5"/>
<path d="M505.994 158.958L307.936 59.7782L349.166 223.259L505.994 158.958ZM505.293 158.931L349.364 222.864L308.371 60.3203L505.293 158.931Z" fill="white" fill-opacity="0.5"/>
<path d="M605.171 317.529L505.994 158.958L483.562 376.076L605.171 317.529ZM604.753 317.406L483.904 375.59L506.196 159.824L604.753 317.406Z" fill="white" fill-opacity="0.5"/>
<path d="M505.994 158.958L349.166 223.259L483.562 376.076L505.994 158.958ZM505.657 159.41L483.344 375.388L349.652 223.374L505.657 159.41Z" fill="white" fill-opacity="0.5"/>
<path d="M505.994 158.958L442.215 37.843L307.936 59.7782L505.994 158.958ZM505.319 158.295L308.868 59.9201L442.057 38.1636L505.319 158.295Z" fill="white" fill-opacity="0.5"/>
<path d="M569.057 157.76L442.215 37.843L505.994 158.958L569.057 157.76ZM568.342 157.483L506.167 158.664L443.284 39.2524L568.342 157.483Z" fill="white" fill-opacity="0.5"/>
<path d="M605.171 317.529L569.057 157.76L505.994 158.958L605.171 317.529ZM604.513 315.933L506.512 159.239L568.828 158.055L604.513 315.933Z" fill="white" fill-opacity="0.5"/>
<path d="M605.171 317.529L483.562 376.076L538.983 488.77L605.171 317.529ZM604.637 318.108L538.951 488.05L483.952 376.211L604.637 318.108Z" fill="white" fill-opacity="0.5"/>
<path d="M605.17 317.529L538.982 488.77L572.925 448.41L605.17 317.529ZM603.805 321.861L572.661 448.274L539.877 487.255L603.805 321.861Z" fill="white" fill-opacity="0.5"/>
<path d="M538.982 488.77L483.562 376.076L374.15 563.711L538.982 488.77ZM538.591 488.629L374.859 563.07L483.541 376.688L538.591 488.629Z" fill="white" fill-opacity="0.5"/>
<path d="M538.982 488.77L374.15 563.711L448.641 582.948L538.982 488.77ZM537.727 489.659L448.549 582.623L375.019 563.635L537.727 489.659Z" fill="white" fill-opacity="0.5"/>
<path d="M448.641 582.948L374.15 563.711L262.093 618.425L448.641 582.948ZM447.311 582.904L264.169 617.734L374.181 564.019L447.311 582.904Z" fill="white" fill-opacity="0.5"/>
<path d="M374.151 563.711L188.409 549.448L262.093 618.425L374.151 563.711ZM373.063 563.919L262.144 618.077L189.21 549.801L373.063 563.919Z" fill="white" fill-opacity="0.5"/>
<path d="M262.093 618.425L188.409 549.448L90.2422 529.071L262.093 618.425ZM260.353 617.194L92.2402 529.782L188.271 549.717L260.353 617.194Z" fill="white" fill-opacity="0.5"/>
<path d="M90.2419 529.071L61.6857 402.204L5.8291 358.309L90.2419 529.071ZM89.429 526.773L6.65464 359.326L61.4269 402.37L89.429 526.773Z" fill="white" fill-opacity="0.5"/>
<path d="M61.6856 402.204L25.9685 229.405L5.8291 358.309L61.6856 402.204ZM61.2425 401.488L6.14168 358.186L26.0086 231.022L61.2425 401.488Z" fill="white" fill-opacity="0.5"/>
<path d="M147.894 205.163L25.9688 229.405L61.6859 402.204L147.894 205.163ZM147.406 205.556L61.7844 401.257L26.3111 229.633L147.406 205.556Z" fill="white" fill-opacity="0.5"/>
<path d="M147.894 205.163L124.941 73.7426L25.9688 229.405L147.894 205.163ZM147.561 204.932L26.5768 228.987L124.785 74.5269L147.561 204.932Z" fill="white" fill-opacity="0.5"/>
<path d="M124.941 73.7426L41.8843 178.107L25.9688 229.405L124.941 73.7426ZM121.766 78.1957L26.8859 227.423L42.143 178.246L121.766 78.1957Z" fill="white" fill-opacity="0.5"/>
<path d="M307.935 59.7782L124.941 73.7428L147.894 205.163L307.935 59.7782ZM307.114 60.1324L148.089 204.595L125.28 74.0081L307.114 60.1324Z" fill="white" fill-opacity="0.5"/>
<path d="M307.935 59.7781L273.975 5.93247L124.941 73.7427L307.935 59.7781ZM307.434 59.5244L126.554 73.3275L273.866 6.30038L307.434 59.5244Z" fill="white" fill-opacity="0.5"/>
<path d="M442.215 37.8431L273.975 5.93269L307.935 59.7783L442.215 37.8431ZM440.543 37.8224L308.077 59.46L274.575 6.3421L440.543 37.8224Z" fill="white" fill-opacity="0.5"/>
<path d="M254.57 418.978C251.797 420.013 248.717 418.586 247.69 415.793C246.663 412.999 248.078 409.897 250.851 408.862C253.624 407.828 256.705 409.253 257.733 412.047C258.758 414.84 257.343 417.944 254.57 418.978Z" fill="white" fill-opacity="0.5"/>
<path d="M149.754 210.22C146.98 211.255 143.9 209.829 142.873 207.036C141.846 204.242 143.262 201.139 146.035 200.104C148.808 199.07 151.888 200.496 152.916 203.29C153.943 206.083 152.527 209.186 149.754 210.22Z" fill="white" fill-opacity="0.5"/>
<path d="M351.025 228.317C348.253 229.352 345.172 227.926 344.145 225.133C343.118 222.34 344.533 219.236 347.306 218.201C350.079 217.167 353.161 218.592 354.188 221.386C355.215 224.179 353.8 227.283 351.025 228.317Z" fill="white" fill-opacity="0.5"/>
<path d="M351.025 228.317C348.253 229.352 345.172 227.926 344.145 225.133C343.118 222.34 344.533 219.236 347.306 218.201C350.079 217.167 353.161 218.592 354.188 221.386C355.215 224.179 353.8 227.283 351.025 228.317Z" fill="white" fill-opacity="0.5"/>
<path d="M254.57 418.978C251.797 420.013 248.717 418.586 247.69 415.793C246.663 412.999 248.078 409.897 250.851 408.862C253.624 407.828 256.705 409.253 257.733 412.047C258.758 414.84 257.343 417.944 254.57 418.978Z" fill="white" fill-opacity="0.5"/>
<path d="M485.423 381.134C482.65 382.168 479.568 380.743 478.541 377.949C477.514 375.156 478.93 372.052 481.703 371.018C484.476 369.983 487.557 371.41 488.584 374.203C489.611 376.997 488.196 380.099 485.423 381.134Z" fill="white" fill-opacity="0.5"/>
<path d="M254.57 418.978C251.797 420.013 248.717 418.586 247.69 415.793C246.663 412.999 248.078 409.897 250.851 408.862C253.624 407.828 256.705 409.253 257.733 412.047C258.758 414.84 257.343 417.944 254.57 418.978Z" fill="white" fill-opacity="0.5"/>
<path d="M376.01 568.768C373.237 569.803 370.157 568.377 369.13 565.584C368.103 562.791 369.518 559.687 372.292 558.653C375.065 557.618 378.146 559.045 379.173 561.838C380.199 564.631 378.784 567.734 376.01 568.768Z" fill="white" fill-opacity="0.5"/>
<path d="M190.268 554.506C187.495 555.54 184.415 554.114 183.388 551.321C182.361 548.528 183.776 545.425 186.549 544.39C189.323 543.356 192.404 544.781 193.431 547.575C194.458 550.368 193.042 553.472 190.268 554.506Z" fill="white" fill-opacity="0.5"/>
<path d="M376.01 568.768C373.237 569.803 370.157 568.377 369.13 565.584C368.103 562.791 369.518 559.687 372.292 558.653C375.065 557.618 378.146 559.045 379.173 561.838C380.199 564.631 378.784 567.734 376.01 568.768Z" fill="white" fill-opacity="0.5"/>
<path d="M254.57 418.978C251.797 420.013 248.717 418.586 247.69 415.793C246.663 412.999 248.078 409.897 250.851 408.862C253.624 407.828 256.705 409.253 257.733 412.047C258.758 414.84 257.343 417.944 254.57 418.978Z" fill="white" fill-opacity="0.5"/>
<path d="M485.423 381.134C482.65 382.168 479.568 380.743 478.541 377.949C477.514 375.156 478.93 372.052 481.703 371.018C484.476 369.983 487.557 371.41 488.584 374.203C489.611 376.997 488.196 380.099 485.423 381.134Z" fill="white" fill-opacity="0.5"/>
<path d="M254.57 418.978C251.797 420.013 248.717 418.586 247.69 415.793C246.663 412.999 248.078 409.897 250.851 408.862C253.624 407.828 256.705 409.253 257.733 412.047C258.758 414.84 257.343 417.944 254.57 418.978Z" fill="white" fill-opacity="0.5"/>
<path d="M63.5454 407.263C60.7722 408.297 57.691 406.87 56.6639 404.077C55.6368 401.284 57.0521 398.181 59.8253 397.147C62.5984 396.112 65.6796 397.538 66.7067 400.331C67.7338 403.124 66.3185 406.227 63.5454 407.263Z" fill="white" fill-opacity="0.5"/>
<path d="M190.268 554.506C187.495 555.54 184.415 554.114 183.388 551.321C182.361 548.528 183.776 545.425 186.549 544.39C189.323 543.356 192.404 544.781 193.431 547.575C194.458 550.368 193.042 553.472 190.268 554.506Z" fill="white" fill-opacity="0.5"/>
<path d="M190.268 554.506C187.495 555.54 184.415 554.114 183.388 551.321C182.361 548.528 183.776 545.425 186.549 544.39C189.323 543.356 192.404 544.781 193.431 547.575C194.458 550.368 193.042 553.472 190.268 554.506Z" fill="white" fill-opacity="0.5"/>
<path d="M63.5454 407.263C60.7722 408.297 57.691 406.87 56.6639 404.077C55.6368 401.284 57.0521 398.181 59.8253 397.147C62.5984 396.112 65.6796 397.538 66.7067 400.331C67.7338 403.124 66.3185 406.227 63.5454 407.263Z" fill="white" fill-opacity="0.5"/>
<path d="M92.1018 534.128C89.3286 535.163 86.2486 533.737 85.2215 530.944C84.1944 528.15 85.6097 525.047 88.3829 524.012C91.1561 522.978 94.2361 524.403 95.2643 527.197C96.2902 529.99 94.875 533.094 92.1018 534.128Z" fill="white" fill-opacity="0.5"/>
<path d="M254.57 418.978C251.797 420.013 248.717 418.586 247.69 415.793C246.663 412.999 248.078 409.897 250.851 408.862C253.624 407.828 256.705 409.253 257.733 412.047C258.758 414.84 257.343 417.944 254.57 418.978Z" fill="white" fill-opacity="0.5"/>
<path d="M63.5454 407.263C60.7722 408.297 57.691 406.87 56.6639 404.077C55.6368 401.284 57.0521 398.181 59.8253 397.147C62.5984 396.112 65.6796 397.538 66.7067 400.331C67.7338 403.124 66.3185 406.227 63.5454 407.263Z" fill="white" fill-opacity="0.5"/>
<path d="M149.754 210.22C146.98 211.255 143.9 209.829 142.873 207.036C141.846 204.242 143.262 201.139 146.035 200.104C148.808 199.07 151.888 200.496 152.916 203.29C153.943 206.083 152.527 209.186 149.754 210.22Z" fill="white" fill-opacity="0.5"/>
<path d="M351.025 228.317C348.253 229.352 345.172 227.926 344.145 225.133C343.118 222.34 344.533 219.236 347.306 218.201C350.079 217.167 353.161 218.592 354.188 221.386C355.215 224.179 353.8 227.283 351.025 228.317Z" fill="white" fill-opacity="0.5"/>
<path d="M149.754 210.22C146.98 211.255 143.9 209.829 142.873 207.036C141.846 204.242 143.262 201.139 146.035 200.104C148.808 199.07 151.888 200.496 152.916 203.29C153.943 206.083 152.527 209.186 149.754 210.22Z" fill="white" fill-opacity="0.5"/>
<path d="M309.795 64.8356C307.021 65.8702 303.941 64.4447 302.914 61.6513C301.887 58.8579 303.303 55.7543 306.076 54.7197C308.849 53.6852 311.93 55.1119 312.956 57.9053C313.984 60.6986 312.568 63.8011 309.795 64.8356Z" fill="white" fill-opacity="0.5"/>
<path d="M309.795 64.8356C307.021 65.8702 303.941 64.4447 302.914 61.6513C301.887 58.8579 303.303 55.7543 306.076 54.7197C308.849 53.6852 311.93 55.1119 312.956 57.9053C313.984 60.6986 312.568 63.8011 309.795 64.8356Z" fill="white" fill-opacity="0.5"/>
<path d="M351.025 228.317C348.253 229.352 345.172 227.926 344.145 225.133C343.118 222.34 344.533 219.236 347.306 218.201C350.079 217.167 353.161 218.592 354.188 221.386C355.215 224.179 353.8 227.283 351.025 228.317Z" fill="white" fill-opacity="0.5"/>
<path d="M507.855 164.015C505.082 165.05 502.001 163.624 500.973 160.831C499.946 158.038 501.362 154.935 504.135 153.899C506.908 152.866 509.989 154.292 511.016 157.085C512.043 159.878 510.628 162.982 507.855 164.015Z" fill="white" fill-opacity="0.5"/>
<path d="M485.423 381.134C482.65 382.168 479.568 380.743 478.541 377.949C477.514 375.156 478.93 372.052 481.703 371.018C484.476 369.983 487.557 371.41 488.584 374.203C489.611 376.997 488.196 380.099 485.423 381.134Z" fill="white" fill-opacity="0.5"/>
<path d="M507.855 164.015C505.082 165.05 502.001 163.624 500.973 160.831C499.946 158.038 501.362 154.935 504.135 153.899C506.908 152.866 509.989 154.292 511.016 157.085C512.043 159.878 510.628 162.982 507.855 164.015Z" fill="white" fill-opacity="0.5"/>
<path d="M607.03 322.586C604.257 323.62 601.175 322.195 600.148 319.402C599.121 316.608 600.536 313.504 603.31 312.471C606.083 311.435 609.164 312.862 610.191 315.655C611.218 318.449 609.803 321.551 607.03 322.586Z" fill="white" fill-opacity="0.5"/>
<path d="M507.855 164.015C505.082 165.05 502.001 163.624 500.973 160.831C499.946 158.038 501.362 154.935 504.135 153.899C506.908 152.866 509.989 154.292 511.016 157.085C512.043 159.878 510.628 162.982 507.855 164.015Z" fill="white" fill-opacity="0.5"/>
<path d="M485.423 381.134C482.65 382.168 479.568 380.743 478.541 377.949C477.514 375.156 478.93 372.052 481.703 371.018C484.476 369.983 487.557 371.41 488.584 374.203C489.611 376.997 488.196 380.099 485.423 381.134Z" fill="white" fill-opacity="0.5"/>
<path d="M351.025 228.317C348.253 229.352 345.172 227.926 344.145 225.133C343.118 222.34 344.533 219.236 347.306 218.201C350.079 217.167 353.161 218.592 354.188 221.386C355.215 224.179 353.8 227.283 351.025 228.317Z" fill="white" fill-opacity="0.5"/>
<path d="M507.855 164.015C505.082 165.05 502.001 163.624 500.973 160.831C499.946 158.038 501.362 154.935 504.135 153.899C506.908 152.866 509.989 154.292 511.016 157.085C512.043 159.878 510.628 162.982 507.855 164.015Z" fill="white" fill-opacity="0.5"/>
<path d="M444.074 42.9017C441.301 43.9362 438.221 42.5095 437.194 39.7162C436.167 36.9228 437.582 33.8203 440.356 32.7857C443.129 31.7512 446.21 33.1768 447.237 35.9701C448.264 38.7635 446.848 41.8671 444.074 42.9017Z" fill="white" fill-opacity="0.5"/>
<path d="M309.795 64.8356C307.021 65.8702 303.941 64.4447 302.914 61.6513C301.887 58.8579 303.303 55.7543 306.076 54.7197C308.849 53.6852 311.93 55.1119 312.956 57.9053C313.984 60.6986 312.568 63.8011 309.795 64.8356Z" fill="white" fill-opacity="0.5"/>
<path d="M444.074 42.9017C441.301 43.9362 438.221 42.5095 437.194 39.7162C436.167 36.9228 437.582 33.8203 440.356 32.7857C443.129 31.7512 446.21 33.1768 447.237 35.9701C448.264 38.7635 446.848 41.8671 444.074 42.9017Z" fill="white" fill-opacity="0.5"/>
<path d="M507.855 164.015C505.082 165.05 502.001 163.624 500.973 160.831C499.946 158.038 501.362 154.935 504.135 153.899C506.908 152.866 509.989 154.292 511.016 157.085C512.043 159.878 510.628 162.982 507.855 164.015Z" fill="white" fill-opacity="0.5"/>
<path d="M570.916 162.818C568.143 163.852 565.063 162.426 564.036 159.633C563.009 156.839 564.424 153.736 567.197 152.702C569.97 151.668 573.051 153.093 574.078 155.887C575.106 158.68 573.689 161.782 570.916 162.818Z" fill="white" fill-opacity="0.5"/>
<path d="M570.916 162.818C568.143 163.852 565.063 162.426 564.036 159.633C563.009 156.839 564.424 153.736 567.197 152.702C569.97 151.668 573.051 153.093 574.078 155.887C575.106 158.68 573.689 161.782 570.916 162.818Z" fill="white" fill-opacity="0.5"/>
<path d="M507.855 164.015C505.082 165.05 502.001 163.624 500.973 160.831C499.946 158.038 501.362 154.935 504.135 153.899C506.908 152.866 509.989 154.292 511.016 157.085C512.043 159.878 510.628 162.982 507.855 164.015Z" fill="white" fill-opacity="0.5"/>
<path d="M607.03 322.586C604.257 323.62 601.175 322.195 600.148 319.402C599.121 316.608 600.536 313.504 603.31 312.471C606.083 311.435 609.164 312.862 610.191 315.655C611.218 318.449 609.803 321.551 607.03 322.586Z" fill="white" fill-opacity="0.5"/>
<path d="M607.03 322.586C604.257 323.62 601.175 322.195 600.148 319.402C599.121 316.608 600.536 313.504 603.31 312.471C606.083 311.435 609.164 312.862 610.191 315.655C611.218 318.449 609.803 321.551 607.03 322.586Z" fill="white" fill-opacity="0.5"/>
<path d="M485.423 381.134C482.65 382.168 479.568 380.743 478.541 377.949C477.514 375.156 478.93 372.052 481.703 371.018C484.476 369.983 487.557 371.41 488.584 374.203C489.611 376.997 488.196 380.099 485.423 381.134Z" fill="white" fill-opacity="0.5"/>
<path d="M540.842 493.827C538.069 494.862 534.988 493.436 533.961 490.643C532.934 487.85 534.35 484.746 537.123 483.711C539.896 482.678 542.976 484.104 544.003 486.897C545.03 489.69 543.615 492.793 540.842 493.827Z" fill="white" fill-opacity="0.5"/>
<path d="M540.842 493.827C538.069 494.862 534.988 493.436 533.961 490.643C532.934 487.85 534.35 484.746 537.123 483.711C539.896 482.678 542.976 484.104 544.003 486.897C545.03 489.69 543.615 492.793 540.842 493.827Z" fill="white" fill-opacity="0.5"/>
<path d="M607.03 322.586C604.257 323.62 601.175 322.195 600.148 319.402C599.121 316.608 600.536 313.504 603.31 312.471C606.083 311.435 609.164 312.862 610.191 315.655C611.218 318.449 609.803 321.551 607.03 322.586Z" fill="white" fill-opacity="0.5"/>
<path d="M574.784 453.469C572.011 454.503 568.931 453.076 567.904 450.283C566.877 447.49 568.292 444.387 571.065 443.353C573.839 442.318 576.92 443.744 577.947 446.537C578.974 449.33 577.558 452.434 574.784 453.469Z" fill="white" fill-opacity="0.5"/>
<path d="M376.01 568.768C373.237 569.803 370.157 568.377 369.13 565.584C368.103 562.791 369.518 559.687 372.292 558.653C375.065 557.618 378.146 559.045 379.173 561.838C380.199 564.631 378.784 567.734 376.01 568.768Z" fill="white" fill-opacity="0.5"/>
<path d="M540.842 493.827C538.069 494.862 534.988 493.436 533.961 490.643C532.934 487.85 534.35 484.746 537.123 483.711C539.896 482.678 542.976 484.104 544.003 486.897C545.03 489.69 543.615 492.793 540.842 493.827Z" fill="white" fill-opacity="0.5"/>
<path d="M485.423 381.134C482.65 382.168 479.568 380.743 478.541 377.949C477.514 375.156 478.93 372.052 481.703 371.018C484.476 369.983 487.557 371.41 488.584 374.203C489.611 376.997 488.196 380.099 485.423 381.134Z" fill="white" fill-opacity="0.5"/>
<path d="M540.842 493.827C538.069 494.862 534.988 493.436 533.961 490.643C532.934 487.85 534.35 484.746 537.123 483.711C539.896 482.678 542.976 484.104 544.003 486.897C545.03 489.69 543.615 492.793 540.842 493.827Z" fill="white" fill-opacity="0.5"/>
<path d="M376.01 568.768C373.237 569.803 370.157 568.377 369.13 565.584C368.103 562.791 369.518 559.687 372.292 558.653C375.065 557.618 378.146 559.045 379.173 561.838C380.199 564.631 378.784 567.734 376.01 568.768Z" fill="white" fill-opacity="0.5"/>
<path d="M450.5 588.005C447.727 589.04 444.646 587.614 443.619 584.821C442.592 582.027 444.007 578.924 446.78 577.889C449.554 576.855 452.635 578.28 453.662 581.074C454.689 583.867 453.274 586.971 450.5 588.005Z" fill="white" fill-opacity="0.5"/>
<path d="M450.5 588.005C447.727 589.04 444.646 587.614 443.619 584.821C442.592 582.027 444.007 578.924 446.78 577.889C449.554 576.855 452.635 578.28 453.662 581.074C454.689 583.867 453.274 586.971 450.5 588.005Z" fill="white" fill-opacity="0.5"/>
<path d="M376.01 568.768C373.237 569.803 370.157 568.377 369.13 565.584C368.103 562.791 369.518 559.687 372.292 558.653C375.065 557.618 378.146 559.045 379.173 561.838C380.199 564.631 378.784 567.734 376.01 568.768Z" fill="white" fill-opacity="0.5"/>
<path d="M263.953 623.483C261.179 624.517 258.098 623.092 257.071 620.298C256.044 617.505 257.459 614.401 260.232 613.367C263.006 612.332 266.087 613.759 267.114 616.552C268.141 619.346 266.726 622.448 263.953 623.483Z" fill="white" fill-opacity="0.5"/>
<path d="M263.953 623.483C261.179 624.517 258.098 623.092 257.071 620.298C256.044 617.505 257.459 614.401 260.232 613.367C263.006 612.332 266.087 613.759 267.114 616.552C268.141 619.346 266.726 622.448 263.953 623.483Z" fill="white" fill-opacity="0.5"/>
<path d="M376.01 568.768C373.237 569.803 370.157 568.377 369.13 565.584C368.103 562.791 369.518 559.687 372.292 558.653C375.065 557.618 378.146 559.045 379.173 561.838C380.199 564.631 378.784 567.734 376.01 568.768Z" fill="white" fill-opacity="0.5"/>
<path d="M190.268 554.506C187.495 555.54 184.415 554.114 183.388 551.321C182.361 548.528 183.776 545.425 186.549 544.39C189.323 543.356 192.404 544.781 193.431 547.575C194.458 550.368 193.042 553.472 190.268 554.506Z" fill="white" fill-opacity="0.5"/>
<path d="M190.268 554.506C187.495 555.54 184.415 554.114 183.388 551.321C182.361 548.528 183.776 545.425 186.549 544.39C189.323 543.356 192.404 544.781 193.431 547.575C194.458 550.368 193.042 553.472 190.268 554.506Z" fill="white" fill-opacity="0.5"/>
<path d="M263.953 623.483C261.179 624.517 258.098 623.092 257.071 620.298C256.044 617.505 257.459 614.401 260.232 613.367C263.006 612.332 266.087 613.759 267.114 616.552C268.141 619.346 266.726 622.448 263.953 623.483Z" fill="white" fill-opacity="0.5"/>
<path d="M92.1018 534.128C89.3286 535.163 86.2486 533.737 85.2215 530.944C84.1944 528.15 85.6097 525.047 88.3829 524.012C91.1561 522.978 94.2361 524.403 95.2643 527.197C96.2902 529.99 94.875 533.094 92.1018 534.128Z" fill="white" fill-opacity="0.5"/>
<path d="M92.1018 534.128C89.3286 535.163 86.2486 533.737 85.2215 530.944C84.1944 528.15 85.6097 525.047 88.3829 524.012C91.1561 522.978 94.2361 524.403 95.2643 527.197C96.2902 529.99 94.875 533.094 92.1018 534.128Z" fill="white" fill-opacity="0.5"/>
<path d="M63.5454 407.263C60.7722 408.297 57.691 406.87 56.6639 404.077C55.6368 401.284 57.0521 398.181 59.8253 397.147C62.5984 396.112 65.6796 397.538 66.7067 400.331C67.7338 403.124 66.3185 406.227 63.5454 407.263Z" fill="white" fill-opacity="0.5"/>
<path d="M7.68989 363.367C4.9167 364.401 1.83549 362.976 0.808428 360.182C-0.218636 357.389 1.1966 354.285 3.96979 353.252C6.74298 352.216 9.82415 353.643 10.8512 356.436C11.8783 359.23 10.4631 362.332 7.68989 363.367Z" fill="white" fill-opacity="0.5"/>
<path d="M7.68989 363.367C4.9167 364.401 1.83549 362.976 0.808428 360.182C-0.218636 357.389 1.1966 354.285 3.96979 353.252C6.74298 352.216 9.82415 353.643 10.8512 356.436C11.8783 359.23 10.4631 362.332 7.68989 363.367Z" fill="white" fill-opacity="0.5"/>
<path d="M63.5454 407.263C60.7722 408.297 57.691 406.87 56.6639 404.077C55.6368 401.284 57.0521 398.181 59.8253 397.147C62.5984 396.112 65.6796 397.538 66.7067 400.331C67.7338 403.124 66.3185 406.227 63.5454 407.263Z" fill="white" fill-opacity="0.5"/>
<path d="M27.8295 234.462C25.0552 235.497 21.9751 234.071 20.9481 231.278C19.921 228.484 21.3362 225.381 24.1094 224.346C26.8826 223.312 29.9638 224.738 30.9909 227.532C32.0179 230.325 30.6027 233.428 27.8295 234.462Z" fill="white" fill-opacity="0.5"/>
<path d="M27.8295 234.462C25.0552 235.497 21.9751 234.071 20.9481 231.278C19.921 228.484 21.3362 225.381 24.1094 224.346C26.8826 223.312 29.9638 224.738 30.9909 227.532C32.0179 230.325 30.6027 233.428 27.8295 234.462Z" fill="white" fill-opacity="0.5"/>
<path d="M63.5454 407.263C60.7722 408.297 57.691 406.87 56.6639 404.077C55.6368 401.284 57.0521 398.181 59.8253 397.147C62.5984 396.112 65.6796 397.538 66.7067 400.331C67.7338 403.124 66.3185 406.227 63.5454 407.263Z" fill="white" fill-opacity="0.5"/>
<path d="M149.754 210.22C146.98 211.255 143.9 209.829 142.873 207.036C141.846 204.242 143.262 201.139 146.035 200.104C148.808 199.07 151.888 200.496 152.916 203.29C153.943 206.083 152.527 209.186 149.754 210.22Z" fill="white" fill-opacity="0.5"/>
<path d="M126.801 78.8002C124.028 79.8348 120.947 78.4093 119.92 75.6159C118.893 72.8225 120.309 69.7189 123.082 68.6843C125.855 67.6498 128.935 69.0765 129.962 71.8699C130.989 74.6632 129.574 77.7657 126.801 78.8002Z" fill="white" fill-opacity="0.5"/>
<path d="M149.754 210.22C146.98 211.255 143.9 209.829 142.873 207.036C141.846 204.242 143.262 201.139 146.035 200.104C148.808 199.07 151.888 200.496 152.916 203.29C153.943 206.083 152.527 209.186 149.754 210.22Z" fill="white" fill-opacity="0.5"/>
<path d="M27.8295 234.462C25.0552 235.497 21.9751 234.071 20.9481 231.278C19.921 228.484 21.3362 225.381 24.1094 224.346C26.8826 223.312 29.9638 224.738 30.9909 227.532C32.0179 230.325 30.6027 233.428 27.8295 234.462Z" fill="white" fill-opacity="0.5"/>
<path d="M27.8295 234.462C25.0552 235.497 21.9751 234.071 20.9481 231.278C19.921 228.484 21.3362 225.381 24.1094 224.346C26.8826 223.312 29.9638 224.738 30.9909 227.532C32.0179 230.325 30.6027 233.428 27.8295 234.462Z" fill="white" fill-opacity="0.5"/>
<path d="M126.801 78.8002C124.028 79.8348 120.947 78.4093 119.92 75.6159C118.893 72.8225 120.309 69.7189 123.082 68.6843C125.855 67.6498 128.935 69.0765 129.962 71.8699C130.989 74.6632 129.574 77.7657 126.801 78.8002Z" fill="white" fill-opacity="0.5"/>
<path d="M43.7439 183.165C40.9707 184.2 37.8896 182.774 36.8625 179.981C35.8354 177.187 37.2518 174.084 40.025 173.049C42.7982 172.015 45.8782 173.44 46.9053 176.234C47.9323 179.027 46.5171 182.131 43.7439 183.165Z" fill="white" fill-opacity="0.5"/>
<path d="M149.754 210.22C146.98 211.255 143.9 209.829 142.873 207.036C141.846 204.242 143.262 201.139 146.035 200.104C148.808 199.07 151.888 200.496 152.916 203.29C153.943 206.083 152.527 209.186 149.754 210.22Z" fill="white" fill-opacity="0.5"/>
<path d="M126.801 78.8002C124.028 79.8348 120.947 78.4093 119.92 75.6159C118.893 72.8225 120.309 69.7189 123.082 68.6843C125.855 67.6498 128.935 69.0765 129.962 71.8699C130.989 74.6632 129.574 77.7657 126.801 78.8002Z" fill="white" fill-opacity="0.5"/>
<path d="M309.795 64.8356C307.021 65.8702 303.941 64.4447 302.914 61.6513C301.887 58.8579 303.303 55.7543 306.076 54.7197C308.849 53.6852 311.93 55.1119 312.956 57.9053C313.984 60.6986 312.568 63.8011 309.795 64.8356Z" fill="white" fill-opacity="0.5"/>
<path d="M126.801 78.8002C124.028 79.8348 120.947 78.4093 119.92 75.6159C118.893 72.8225 120.309 69.7189 123.082 68.6843C125.855 67.6498 128.935 69.0765 129.962 71.8699C130.989 74.6632 129.574 77.7657 126.801 78.8002Z" fill="white" fill-opacity="0.5"/>
<path d="M309.795 64.8356C307.021 65.8702 303.941 64.4447 302.914 61.6513C301.887 58.8579 303.303 55.7543 306.076 54.7197C308.849 53.6852 311.93 55.1119 312.956 57.9053C313.984 60.6986 312.568 63.8011 309.795 64.8356Z" fill="white" fill-opacity="0.5"/>
<path d="M275.834 10.9899C273.061 12.0245 269.981 10.5989 268.954 7.80558C267.927 5.0122 269.342 1.90857 272.115 0.874031C274.889 -0.160509 277.97 1.26505 278.996 4.05842C280.024 6.8518 278.607 9.95537 275.834 10.9899Z" fill="white" fill-opacity="0.5"/>
<path d="M275.834 10.9899C273.061 12.0245 269.981 10.5989 268.954 7.80558C267.927 5.0122 269.342 1.90857 272.115 0.874031C274.889 -0.160509 277.97 1.26505 278.996 4.05842C280.024 6.8518 278.607 9.95537 275.834 10.9899Z" fill="white" fill-opacity="0.5"/>
<path d="M309.795 64.8356C307.021 65.8702 303.941 64.4447 302.914 61.6513C301.887 58.8579 303.303 55.7543 306.076 54.7197C308.849 53.6852 311.93 55.1119 312.956 57.9053C313.984 60.6986 312.568 63.8011 309.795 64.8356Z" fill="white" fill-opacity="0.5"/>
<path d="M444.074 42.9017C441.301 43.9362 438.221 42.5095 437.194 39.7162C436.167 36.9228 437.582 33.8203 440.356 32.7857C443.129 31.7512 446.21 33.1768 447.237 35.9701C448.264 38.7635 446.848 41.8671 444.074 42.9017Z" fill="white" fill-opacity="0.5"/>
</svg>
