<svg width="651" height="786" viewBox="0 0 651 786" fill="none" xmlns="http://www.w3.org/2000/svg">
<circle cx="166" cy="384" r="165" stroke="white" stroke-width="2"/>
<circle cx="281" cy="384" r="279.5" stroke="white" stroke-width="3"/>
<circle cx="485" cy="166" r="165" fill="black" stroke="white" stroke-width="2"/>
<circle cx="475" cy="620" r="165" fill="black" stroke="white" stroke-width="2"/>
<path d="M97.8347 338.23C98.5947 338.35 99.2847 338.66 99.9047 339.16C100.545 339.66 101.045 340.28 101.405 341.02C101.785 341.76 101.975 342.55 101.975 343.39C101.975 344.45 101.705 345.41 101.165 346.27C100.625 347.11 99.8347 347.78 98.7947 348.28C97.7747 348.76 96.5647 349 95.1647 349H87.3647V328.09H94.8647C96.2847 328.09 97.4947 328.33 98.4947 328.81C99.4947 329.27 100.245 329.9 100.745 330.7C101.245 331.5 101.495 332.4 101.495 333.4C101.495 334.64 101.155 335.67 100.475 336.49C99.8147 337.29 98.9347 337.87 97.8347 338.23ZM90.0947 337.12H94.6847C95.9647 337.12 96.9547 336.82 97.6547 336.22C98.3547 335.62 98.7047 334.79 98.7047 333.73C98.7047 332.67 98.3547 331.84 97.6547 331.24C96.9547 330.64 95.9447 330.34 94.6247 330.34H90.0947V337.12ZM94.9247 346.75C96.2847 346.75 97.3447 346.43 98.1047 345.79C98.8647 345.15 99.2447 344.26 99.2447 343.12C99.2447 341.96 98.8447 341.05 98.0447 340.39C97.2447 339.71 96.1747 339.37 94.8347 339.37H90.0947V346.75H94.9247ZM108.493 326.8V349H105.763V326.8H108.493ZM120.316 349.27C118.776 349.27 117.376 348.92 116.116 348.22C114.876 347.52 113.896 346.53 113.176 345.25C112.476 343.95 112.126 342.45 112.126 340.75C112.126 339.07 112.486 337.59 113.206 336.31C113.946 335.01 114.946 334.02 116.206 333.34C117.466 332.64 118.876 332.29 120.436 332.29C121.996 332.29 123.406 332.64 124.666 333.34C125.926 334.02 126.916 335 127.636 336.28C128.376 337.56 128.746 339.05 128.746 340.75C128.746 342.45 128.366 343.95 127.606 345.25C126.866 346.53 125.856 347.52 124.576 348.22C123.296 348.92 121.876 349.27 120.316 349.27ZM120.316 346.87C121.296 346.87 122.216 346.64 123.076 346.18C123.936 345.72 124.626 345.03 125.146 344.11C125.686 343.19 125.956 342.07 125.956 340.75C125.956 339.43 125.696 338.31 125.176 337.39C124.656 336.47 123.976 335.79 123.136 335.35C122.296 334.89 121.386 334.66 120.406 334.66C119.406 334.66 118.486 334.89 117.646 335.35C116.826 335.79 116.166 336.47 115.666 337.39C115.166 338.31 114.916 339.43 114.916 340.75C114.916 342.09 115.156 343.22 115.636 344.14C116.136 345.06 116.796 345.75 117.616 346.21C118.436 346.65 119.336 346.87 120.316 346.87ZM131.315 340.75C131.315 339.05 131.655 337.57 132.335 336.31C133.015 335.03 133.955 334.04 135.155 333.34C136.375 332.64 137.765 332.29 139.325 332.29C141.345 332.29 143.005 332.78 144.305 333.76C145.625 334.74 146.495 336.1 146.915 337.84H143.975C143.695 336.84 143.145 336.05 142.325 335.47C141.525 334.89 140.525 334.6 139.325 334.6C137.765 334.6 136.505 335.14 135.545 336.22C134.585 337.28 134.105 338.79 134.105 340.75C134.105 342.73 134.585 344.26 135.545 345.34C136.505 346.42 137.765 346.96 139.325 346.96C140.525 346.96 141.525 346.68 142.325 346.12C143.125 345.56 143.675 344.76 143.975 343.72H146.915C146.475 345.4 145.595 346.75 144.275 347.77C142.955 348.77 141.305 349.27 139.325 349.27C137.765 349.27 136.375 348.92 135.155 348.22C133.955 347.52 133.015 346.53 132.335 345.25C131.655 343.97 131.315 342.47 131.315 340.75ZM159.738 349L153.288 341.74V349H150.558V326.8H153.288V339.85L159.618 332.56H163.428L155.688 340.75L163.458 349H159.738ZM164.978 340.75C164.978 339.05 165.318 337.57 165.998 336.31C166.678 335.03 167.618 334.04 168.818 333.34C170.038 332.64 171.428 332.29 172.988 332.29C175.008 332.29 176.668 332.78 177.968 333.76C179.288 334.74 180.158 336.1 180.578 337.84H177.638C177.358 336.84 176.808 336.05 175.988 335.47C175.188 334.89 174.188 334.6 172.988 334.6C171.428 334.6 170.168 335.14 169.208 336.22C168.248 337.28 167.768 338.79 167.768 340.75C167.768 342.73 168.248 344.26 169.208 345.34C170.168 346.42 171.428 346.96 172.988 346.96C174.188 346.96 175.188 346.68 175.988 346.12C176.788 345.56 177.338 344.76 177.638 343.72H180.578C180.138 345.4 179.258 346.75 177.938 347.77C176.618 348.77 174.968 349.27 172.988 349.27C171.428 349.27 170.038 348.92 168.818 348.22C167.618 347.52 166.678 346.53 165.998 345.25C165.318 343.97 164.978 342.47 164.978 340.75ZM192.38 332.26C193.62 332.26 194.74 332.53 195.74 333.07C196.74 333.59 197.52 334.38 198.08 335.44C198.66 336.5 198.95 337.79 198.95 339.31V349H196.25V339.7C196.25 338.06 195.84 336.81 195.02 335.95C194.2 335.07 193.08 334.63 191.66 334.63C190.22 334.63 189.07 335.08 188.21 335.98C187.37 336.88 186.95 338.19 186.95 339.91V349H184.22V326.8H186.95V334.9C187.49 334.06 188.23 333.41 189.17 332.95C190.13 332.49 191.2 332.26 192.38 332.26ZM202.39 340.72C202.39 339.04 202.73 337.57 203.41 336.31C204.09 335.03 205.02 334.04 206.2 333.34C207.4 332.64 208.73 332.29 210.19 332.29C211.63 332.29 212.88 332.6 213.94 333.22C215 333.84 215.79 334.62 216.31 335.56V332.56H219.07V349H216.31V345.94C215.77 346.9 214.96 347.7 213.88 348.34C212.82 348.96 211.58 349.27 210.16 349.27C208.7 349.27 207.38 348.91 206.2 348.19C205.02 347.47 204.09 346.46 203.41 345.16C202.73 343.86 202.39 342.38 202.39 340.72ZM216.31 340.75C216.31 339.51 216.06 338.43 215.56 337.51C215.06 336.59 214.38 335.89 213.52 335.41C212.68 334.91 211.75 334.66 210.73 334.66C209.71 334.66 208.78 334.9 207.94 335.38C207.1 335.86 206.43 336.56 205.93 337.48C205.43 338.4 205.18 339.48 205.18 340.72C205.18 341.98 205.43 343.08 205.93 344.02C206.43 344.94 207.1 345.65 207.94 346.15C208.78 346.63 209.71 346.87 210.73 346.87C211.75 346.87 212.68 346.63 213.52 346.15C214.38 345.65 215.06 344.94 215.56 344.02C216.06 343.08 216.31 341.99 216.31 340.75ZM225.093 329.89C224.573 329.89 224.133 329.71 223.773 329.35C223.413 328.99 223.233 328.55 223.233 328.03C223.233 327.51 223.413 327.07 223.773 326.71C224.133 326.35 224.573 326.17 225.093 326.17C225.593 326.17 226.013 326.35 226.353 326.71C226.713 327.07 226.893 327.51 226.893 328.03C226.893 328.55 226.713 328.99 226.353 329.35C226.013 329.71 225.593 329.89 225.093 329.89ZM226.413 332.56V349H223.683V332.56H226.413ZM239.076 332.26C241.076 332.26 242.696 332.87 243.936 334.09C245.176 335.29 245.796 337.03 245.796 339.31V349H243.096V339.7C243.096 338.06 242.686 336.81 241.866 335.95C241.046 335.07 239.926 334.63 238.506 334.63C237.066 334.63 235.916 335.08 235.056 335.98C234.216 336.88 233.796 338.19 233.796 339.91V349H231.066V332.56H233.796V334.9C234.336 334.06 235.066 333.41 235.986 332.95C236.926 332.49 237.956 332.26 239.076 332.26ZM78.6534 394.27C77.3934 394.27 76.2634 394.06 75.2634 393.64C74.2634 393.2 73.4734 392.6 72.8934 391.84C72.3134 391.06 71.9934 390.17 71.9334 389.17H74.7534C74.8334 389.99 75.2134 390.66 75.8934 391.18C76.5934 391.7 77.5034 391.96 78.6234 391.96C79.6634 391.96 80.4834 391.73 81.0834 391.27C81.6834 390.81 81.9834 390.23 81.9834 389.53C81.9834 388.81 81.6634 388.28 81.0234 387.94C80.3834 387.58 79.3934 387.23 78.0534 386.89C76.8334 386.57 75.8334 386.25 75.0534 385.93C74.2934 385.59 73.6334 385.1 73.0734 384.46C72.5334 383.8 72.2634 382.94 72.2634 381.88C72.2634 381.04 72.5134 380.27 73.0134 379.57C73.5134 378.87 74.2234 378.32 75.1434 377.92C76.0634 377.5 77.1134 377.29 78.2934 377.29C80.1134 377.29 81.5834 377.75 82.7034 378.67C83.8234 379.59 84.4234 380.85 84.5034 382.45H81.7734C81.7134 381.59 81.3634 380.9 80.7234 380.38C80.1034 379.86 79.2634 379.6 78.2034 379.6C77.2234 379.6 76.4434 379.81 75.8634 380.23C75.2834 380.65 74.9934 381.2 74.9934 381.88C74.9934 382.42 75.1634 382.87 75.5034 383.23C75.8634 383.57 76.3034 383.85 76.8234 384.07C77.3634 384.27 78.1034 384.5 79.0434 384.76C80.2234 385.08 81.1834 385.4 81.9234 385.72C82.6634 386.02 83.2934 386.48 83.8134 387.1C84.3534 387.72 84.6334 388.53 84.6534 389.53C84.6534 390.43 84.4034 391.24 83.9034 391.96C83.4034 392.68 82.6934 393.25 81.7734 393.67C80.8734 394.07 79.8334 394.27 78.6534 394.27ZM103.087 377.56V394H100.357V391.57C99.8373 392.41 99.1073 393.07 98.1673 393.55C97.2473 394.01 96.2273 394.24 95.1073 394.24C93.8273 394.24 92.6773 393.98 91.6573 393.46C90.6373 392.92 89.8273 392.12 89.2273 391.06C88.6473 390 88.3573 388.71 88.3573 387.19V377.56H91.0573V386.83C91.0573 388.45 91.4673 389.7 92.2873 390.58C93.1073 391.44 94.2273 391.87 95.6473 391.87C97.1073 391.87 98.2573 391.42 99.0973 390.52C99.9373 389.62 100.357 388.31 100.357 386.59V377.56H103.087ZM110.427 380.59C110.967 379.65 111.767 378.87 112.827 378.25C113.907 377.61 115.157 377.29 116.577 377.29C118.037 377.29 119.357 377.64 120.537 378.34C121.737 379.04 122.677 380.03 123.357 381.31C124.037 382.57 124.377 384.04 124.377 385.72C124.377 387.38 124.037 388.86 123.357 390.16C122.677 391.46 121.737 392.47 120.537 393.19C119.357 393.91 118.037 394.27 116.577 394.27C115.177 394.27 113.937 393.96 112.857 393.34C111.797 392.7 110.987 391.91 110.427 390.97V401.8H107.697V377.56H110.427V380.59ZM121.587 385.72C121.587 384.48 121.337 383.4 120.837 382.48C120.337 381.56 119.657 380.86 118.797 380.38C117.957 379.9 117.027 379.66 116.007 379.66C115.007 379.66 114.077 379.91 113.217 380.41C112.377 380.89 111.697 381.6 111.177 382.54C110.677 383.46 110.427 384.53 110.427 385.75C110.427 386.99 110.677 388.08 111.177 389.02C111.697 389.94 112.377 390.65 113.217 391.15C114.077 391.63 115.007 391.87 116.007 391.87C117.027 391.87 117.957 391.63 118.797 391.15C119.657 390.65 120.337 389.94 120.837 389.02C121.337 388.08 121.587 386.98 121.587 385.72ZM130.7 380.59C131.24 379.65 132.04 378.87 133.1 378.25C134.18 377.61 135.43 377.29 136.85 377.29C138.31 377.29 139.63 377.64 140.81 378.34C142.01 379.04 142.95 380.03 143.63 381.31C144.31 382.57 144.65 384.04 144.65 385.72C144.65 387.38 144.31 388.86 143.63 390.16C142.95 391.46 142.01 392.47 140.81 393.19C139.63 393.91 138.31 394.27 136.85 394.27C135.45 394.27 134.21 393.96 133.13 393.34C132.07 392.7 131.26 391.91 130.7 390.97V401.8H127.97V377.56H130.7V380.59ZM141.86 385.72C141.86 384.48 141.61 383.4 141.11 382.48C140.61 381.56 139.93 380.86 139.07 380.38C138.23 379.9 137.3 379.66 136.28 379.66C135.28 379.66 134.35 379.91 133.49 380.41C132.65 380.89 131.97 381.6 131.45 382.54C130.95 383.46 130.7 384.53 130.7 385.75C130.7 386.99 130.95 388.08 131.45 389.02C131.97 389.94 132.65 390.65 133.49 391.15C134.35 391.63 135.28 391.87 136.28 391.87C137.3 391.87 138.23 391.63 139.07 391.15C139.93 390.65 140.61 389.94 141.11 389.02C141.61 388.08 141.86 386.98 141.86 385.72ZM150.974 371.8V394H148.244V371.8H150.974ZM169.786 377.56L159.886 401.74H157.066L160.306 393.82L153.676 377.56H156.706L161.866 390.88L166.966 377.56H169.786ZM179.509 385.75C179.509 384.05 179.849 382.57 180.529 381.31C181.209 380.03 182.149 379.04 183.349 378.34C184.569 377.64 185.959 377.29 187.519 377.29C189.539 377.29 191.199 377.78 192.499 378.76C193.819 379.74 194.689 381.1 195.109 382.84H192.169C191.889 381.84 191.339 381.05 190.519 380.47C189.719 379.89 188.719 379.6 187.519 379.6C185.959 379.6 184.699 380.14 183.739 381.22C182.779 382.28 182.299 383.79 182.299 385.75C182.299 387.73 182.779 389.26 183.739 390.34C184.699 391.42 185.959 391.96 187.519 391.96C188.719 391.96 189.719 391.68 190.519 391.12C191.319 390.56 191.869 389.76 192.169 388.72H195.109C194.669 390.4 193.789 391.75 192.469 392.77C191.149 393.77 189.499 394.27 187.519 394.27C185.959 394.27 184.569 393.92 183.349 393.22C182.149 392.52 181.209 391.53 180.529 390.25C179.849 388.97 179.509 387.47 179.509 385.75ZM206.911 377.26C208.151 377.26 209.271 377.53 210.271 378.07C211.271 378.59 212.051 379.38 212.611 380.44C213.191 381.5 213.481 382.79 213.481 384.31V394H210.781V384.7C210.781 383.06 210.371 381.81 209.551 380.95C208.731 380.07 207.611 379.63 206.191 379.63C204.751 379.63 203.601 380.08 202.741 380.98C201.901 381.88 201.481 383.19 201.481 384.91V394H198.751V371.8H201.481V379.9C202.021 379.06 202.761 378.41 203.701 377.95C204.661 377.49 205.731 377.26 206.911 377.26ZM216.921 385.72C216.921 384.04 217.261 382.57 217.941 381.31C218.621 380.03 219.551 379.04 220.731 378.34C221.931 377.64 223.261 377.29 224.721 377.29C226.161 377.29 227.411 377.6 228.471 378.22C229.531 378.84 230.321 379.62 230.841 380.56V377.56H233.601V394H230.841V390.94C230.301 391.9 229.491 392.7 228.411 393.34C227.351 393.96 226.111 394.27 224.691 394.27C223.231 394.27 221.911 393.91 220.731 393.19C219.551 392.47 218.621 391.46 217.941 390.16C217.261 388.86 216.921 387.38 216.921 385.72ZM230.841 385.75C230.841 384.51 230.591 383.43 230.091 382.51C229.591 381.59 228.911 380.89 228.051 380.41C227.211 379.91 226.281 379.66 225.261 379.66C224.241 379.66 223.311 379.9 222.471 380.38C221.631 380.86 220.961 381.56 220.461 382.48C219.961 383.4 219.711 384.48 219.711 385.72C219.711 386.98 219.961 388.08 220.461 389.02C220.961 389.94 221.631 390.65 222.471 391.15C223.311 391.63 224.241 391.87 225.261 391.87C226.281 391.87 227.211 391.63 228.051 391.15C228.911 390.65 229.591 389.94 230.091 389.02C230.591 388.08 230.841 386.99 230.841 385.75ZM239.624 374.89C239.104 374.89 238.664 374.71 238.304 374.35C237.944 373.99 237.764 373.55 237.764 373.03C237.764 372.51 237.944 372.07 238.304 371.71C238.664 371.35 239.104 371.17 239.624 371.17C240.124 371.17 240.544 371.35 240.884 371.71C241.244 372.07 241.424 372.51 241.424 373.03C241.424 373.55 241.244 373.99 240.884 374.35C240.544 374.71 240.124 374.89 239.624 374.89ZM240.944 377.56V394H238.214V377.56H240.944ZM253.607 377.26C255.607 377.26 257.227 377.87 258.467 379.09C259.707 380.29 260.327 382.03 260.327 384.31V394H257.627V384.7C257.627 383.06 257.217 381.81 256.397 380.95C255.577 380.07 254.457 379.63 253.037 379.63C251.597 379.63 250.447 380.08 249.587 380.98C248.747 381.88 248.327 383.19 248.327 384.91V394H245.597V377.56H248.327V379.9C248.867 379.06 249.597 378.41 250.517 377.95C251.457 377.49 252.487 377.26 253.607 377.26ZM110.69 424.81V434.5C110.69 435.3 110.86 435.87 111.2 436.21C111.54 436.53 112.13 436.69 112.97 436.69H114.98V439H112.52C111 439 109.86 438.65 109.1 437.95C108.34 437.25 107.96 436.1 107.96 434.5V424.81H105.83V422.56H107.96V418.42H110.69V422.56H114.98V424.81H110.69ZM121.018 425.23C121.498 424.29 122.178 423.56 123.058 423.04C123.958 422.52 125.048 422.26 126.328 422.26V425.08H125.608C122.548 425.08 121.018 426.74 121.018 430.06V439H118.288V422.56H121.018V425.23ZM128.459 430.72C128.459 429.04 128.799 427.57 129.479 426.31C130.159 425.03 131.089 424.04 132.269 423.34C133.469 422.64 134.799 422.29 136.259 422.29C137.699 422.29 138.949 422.6 140.009 423.22C141.069 423.84 141.859 424.62 142.379 425.56V422.56H145.139V439H142.379V435.94C141.839 436.9 141.029 437.7 139.949 438.34C138.889 438.96 137.649 439.27 136.229 439.27C134.769 439.27 133.449 438.91 132.269 438.19C131.089 437.47 130.159 436.46 129.479 435.16C128.799 433.86 128.459 432.38 128.459 430.72ZM142.379 430.75C142.379 429.51 142.129 428.43 141.629 427.51C141.129 426.59 140.449 425.89 139.589 425.41C138.749 424.91 137.819 424.66 136.799 424.66C135.779 424.66 134.849 424.9 134.009 425.38C133.169 425.86 132.499 426.56 131.999 427.48C131.499 428.4 131.249 429.48 131.249 430.72C131.249 431.98 131.499 433.08 131.999 434.02C132.499 434.94 133.169 435.65 134.009 436.15C134.849 436.63 135.779 436.87 136.799 436.87C137.819 436.87 138.749 436.63 139.589 436.15C140.449 435.65 141.129 434.94 141.629 434.02C142.129 433.08 142.379 431.99 142.379 430.75ZM148.732 430.75C148.732 429.05 149.072 427.57 149.752 426.31C150.432 425.03 151.372 424.04 152.572 423.34C153.792 422.64 155.182 422.29 156.742 422.29C158.762 422.29 160.422 422.78 161.722 423.76C163.042 424.74 163.912 426.1 164.332 427.84H161.392C161.112 426.84 160.562 426.05 159.742 425.47C158.942 424.89 157.942 424.6 156.742 424.6C155.182 424.6 153.922 425.14 152.962 426.22C152.002 427.28 151.522 428.79 151.522 430.75C151.522 432.73 152.002 434.26 152.962 435.34C153.922 436.42 155.182 436.96 156.742 436.96C157.942 436.96 158.942 436.68 159.742 436.12C160.542 435.56 161.092 434.76 161.392 433.72H164.332C163.892 435.4 163.012 436.75 161.692 437.77C160.372 438.77 158.722 439.27 156.742 439.27C155.182 439.27 153.792 438.92 152.572 438.22C151.372 437.52 150.432 436.53 149.752 435.25C149.072 433.97 148.732 432.47 148.732 430.75ZM177.155 439L170.705 431.74V439H167.975V416.8H170.705V429.85L177.035 422.56H180.845L173.105 430.75L180.875 439H177.155ZM184.824 419.89C184.304 419.89 183.864 419.71 183.504 419.35C183.144 418.99 182.964 418.55 182.964 418.03C182.964 417.51 183.144 417.07 183.504 416.71C183.864 416.35 184.304 416.17 184.824 416.17C185.324 416.17 185.744 416.35 186.084 416.71C186.444 417.07 186.624 417.51 186.624 418.03C186.624 418.55 186.444 418.99 186.084 419.35C185.744 419.71 185.324 419.89 184.824 419.89ZM186.144 422.56V439H183.414V422.56H186.144ZM198.807 422.26C200.807 422.26 202.427 422.87 203.667 424.09C204.907 425.29 205.527 427.03 205.527 429.31V439H202.827V429.7C202.827 428.06 202.417 426.81 201.597 425.95C200.777 425.07 199.657 424.63 198.237 424.63C196.797 424.63 195.647 425.08 194.787 425.98C193.947 426.88 193.527 428.19 193.527 429.91V439H190.797V422.56H193.527V424.9C194.067 424.06 194.797 423.41 195.717 422.95C196.657 422.49 197.687 422.26 198.807 422.26ZM216.767 422.29C218.187 422.29 219.427 422.6 220.487 423.22C221.567 423.84 222.367 424.62 222.887 425.56V422.56H225.647V439.36C225.647 440.86 225.327 442.19 224.687 443.35C224.047 444.53 223.127 445.45 221.927 446.11C220.747 446.77 219.367 447.1 217.787 447.1C215.627 447.1 213.827 446.59 212.387 445.57C210.947 444.55 210.097 443.16 209.837 441.4H212.537C212.837 442.4 213.457 443.2 214.397 443.8C215.337 444.42 216.467 444.73 217.787 444.73C219.287 444.73 220.507 444.26 221.447 443.32C222.407 442.38 222.887 441.06 222.887 439.36V435.91C222.347 436.87 221.547 437.67 220.487 438.31C219.427 438.95 218.187 439.27 216.767 439.27C215.307 439.27 213.977 438.91 212.777 438.19C211.597 437.47 210.667 436.46 209.987 435.16C209.307 433.86 208.967 432.38 208.967 430.72C208.967 429.04 209.307 427.57 209.987 426.31C210.667 425.03 211.597 424.04 212.777 423.34C213.977 422.64 215.307 422.29 216.767 422.29ZM222.887 430.75C222.887 429.51 222.637 428.43 222.137 427.51C221.637 426.59 220.957 425.89 220.097 425.41C219.257 424.91 218.327 424.66 217.307 424.66C216.287 424.66 215.357 424.9 214.517 425.38C213.677 425.86 213.007 426.56 212.507 427.48C212.007 428.4 211.757 429.48 211.757 430.72C211.757 431.98 212.007 433.08 212.507 434.02C213.007 434.94 213.677 435.65 214.517 436.15C215.357 436.63 216.287 436.87 217.307 436.87C218.327 436.87 219.257 436.63 220.097 436.15C220.957 435.65 221.637 434.94 222.137 434.02C222.637 433.08 222.887 431.99 222.887 430.75Z" fill="white"/>
<path d="M433.387 120.23C434.147 120.35 434.837 120.66 435.457 121.16C436.097 121.66 436.597 122.28 436.957 123.02C437.337 123.76 437.527 124.55 437.527 125.39C437.527 126.45 437.257 127.41 436.717 128.27C436.177 129.11 435.387 129.78 434.347 130.28C433.327 130.76 432.117 131 430.717 131H422.917V110.09H430.417C431.837 110.09 433.047 110.33 434.047 110.81C435.047 111.27 435.797 111.9 436.297 112.7C436.797 113.5 437.047 114.4 437.047 115.4C437.047 116.64 436.707 117.67 436.027 118.49C435.367 119.29 434.487 119.87 433.387 120.23ZM425.647 119.12H430.237C431.517 119.12 432.507 118.82 433.207 118.22C433.907 117.62 434.257 116.79 434.257 115.73C434.257 114.67 433.907 113.84 433.207 113.24C432.507 112.64 431.497 112.34 430.177 112.34H425.647V119.12ZM430.477 128.75C431.837 128.75 432.897 128.43 433.657 127.79C434.417 127.15 434.797 126.26 434.797 125.12C434.797 123.96 434.397 123.05 433.597 122.39C432.797 121.71 431.727 121.37 430.387 121.37H425.647V128.75H430.477ZM455.896 114.56V131H453.166V128.57C452.646 129.41 451.916 130.07 450.976 130.55C450.056 131.01 449.036 131.24 447.916 131.24C446.636 131.24 445.486 130.98 444.466 130.46C443.446 129.92 442.636 129.12 442.036 128.06C441.456 127 441.166 125.71 441.166 124.19V114.56H443.866V123.83C443.866 125.45 444.276 126.7 445.096 127.58C445.916 128.44 447.036 128.87 448.456 128.87C449.916 128.87 451.066 128.42 451.906 127.52C452.746 126.62 453.166 125.31 453.166 123.59V114.56H455.896ZM466.325 131.27C465.065 131.27 463.935 131.06 462.935 130.64C461.935 130.2 461.145 129.6 460.565 128.84C459.985 128.06 459.665 127.17 459.605 126.17H462.425C462.505 126.99 462.885 127.66 463.565 128.18C464.265 128.7 465.175 128.96 466.295 128.96C467.335 128.96 468.155 128.73 468.755 128.27C469.355 127.81 469.655 127.23 469.655 126.53C469.655 125.81 469.335 125.28 468.695 124.94C468.055 124.58 467.065 124.23 465.725 123.89C464.505 123.57 463.505 123.25 462.725 122.93C461.965 122.59 461.305 122.1 460.745 121.46C460.205 120.8 459.935 119.94 459.935 118.88C459.935 118.04 460.185 117.27 460.685 116.57C461.185 115.87 461.895 115.32 462.815 114.92C463.735 114.5 464.785 114.29 465.965 114.29C467.785 114.29 469.255 114.75 470.375 115.67C471.495 116.59 472.095 117.85 472.175 119.45H469.445C469.385 118.59 469.035 117.9 468.395 117.38C467.775 116.86 466.935 116.6 465.875 116.6C464.895 116.6 464.115 116.81 463.535 117.23C462.955 117.65 462.665 118.2 462.665 118.88C462.665 119.42 462.835 119.87 463.175 120.23C463.535 120.57 463.975 120.85 464.495 121.07C465.035 121.27 465.775 121.5 466.715 121.76C467.895 122.08 468.855 122.4 469.595 122.72C470.335 123.02 470.965 123.48 471.485 124.1C472.025 124.72 472.305 125.53 472.325 126.53C472.325 127.43 472.075 128.24 471.575 128.96C471.075 129.68 470.365 130.25 469.445 130.67C468.545 131.07 467.505 131.27 466.325 131.27ZM477.589 111.89C477.069 111.89 476.629 111.71 476.269 111.35C475.909 110.99 475.729 110.55 475.729 110.03C475.729 109.51 475.909 109.07 476.269 108.71C476.629 108.35 477.069 108.17 477.589 108.17C478.089 108.17 478.509 108.35 478.849 108.71C479.209 109.07 479.389 109.51 479.389 110.03C479.389 110.55 479.209 110.99 478.849 111.35C478.509 111.71 478.089 111.89 477.589 111.89ZM478.909 114.56V131H476.179V114.56H478.909ZM491.572 114.26C493.572 114.26 495.192 114.87 496.432 116.09C497.672 117.29 498.292 119.03 498.292 121.31V131H495.592V121.7C495.592 120.06 495.182 118.81 494.362 117.95C493.542 117.07 492.422 116.63 491.002 116.63C489.562 116.63 488.412 117.08 487.552 117.98C486.712 118.88 486.292 120.19 486.292 121.91V131H483.562V114.56H486.292V116.9C486.832 116.06 487.562 115.41 488.482 114.95C489.422 114.49 490.452 114.26 491.572 114.26ZM517.751 122.15C517.751 122.67 517.721 123.22 517.661 123.8H504.521C504.621 125.42 505.171 126.69 506.171 127.61C507.191 128.51 508.421 128.96 509.861 128.96C511.041 128.96 512.021 128.69 512.801 128.15C513.601 127.59 514.161 126.85 514.481 125.93H517.421C516.981 127.51 516.101 128.8 514.781 129.8C513.461 130.78 511.821 131.27 509.861 131.27C508.301 131.27 506.901 130.92 505.661 130.22C504.441 129.52 503.481 128.53 502.781 127.25C502.081 125.95 501.731 124.45 501.731 122.75C501.731 121.05 502.071 119.56 502.751 118.28C503.431 117 504.381 116.02 505.601 115.34C506.841 114.64 508.261 114.29 509.861 114.29C511.421 114.29 512.801 114.63 514.001 115.31C515.201 115.99 516.121 116.93 516.761 118.13C517.421 119.31 517.751 120.65 517.751 122.15ZM514.931 121.58C514.931 120.54 514.701 119.65 514.241 118.91C513.781 118.15 513.151 117.58 512.351 117.2C511.571 116.8 510.701 116.6 509.741 116.6C508.361 116.6 507.181 117.04 506.201 117.92C505.241 118.8 504.691 120.02 504.551 121.58H514.931ZM527.175 131.27C525.915 131.27 524.785 131.06 523.785 130.64C522.785 130.2 521.995 129.6 521.415 128.84C520.835 128.06 520.515 127.17 520.455 126.17H523.275C523.355 126.99 523.735 127.66 524.415 128.18C525.115 128.7 526.025 128.96 527.145 128.96C528.185 128.96 529.005 128.73 529.605 128.27C530.205 127.81 530.505 127.23 530.505 126.53C530.505 125.81 530.185 125.28 529.545 124.94C528.905 124.58 527.915 124.23 526.575 123.89C525.355 123.57 524.355 123.25 523.575 122.93C522.815 122.59 522.155 122.1 521.595 121.46C521.055 120.8 520.785 119.94 520.785 118.88C520.785 118.04 521.035 117.27 521.535 116.57C522.035 115.87 522.745 115.32 523.665 114.92C524.585 114.5 525.635 114.29 526.815 114.29C528.635 114.29 530.105 114.75 531.225 115.67C532.345 116.59 532.945 117.85 533.025 119.45H530.295C530.235 118.59 529.885 117.9 529.245 117.38C528.625 116.86 527.785 116.6 526.725 116.6C525.745 116.6 524.965 116.81 524.385 117.23C523.805 117.65 523.515 118.2 523.515 118.88C523.515 119.42 523.685 119.87 524.025 120.23C524.385 120.57 524.825 120.85 525.345 121.07C525.885 121.27 526.625 121.5 527.565 121.76C528.745 122.08 529.705 122.4 530.445 122.72C531.185 123.02 531.815 123.48 532.335 124.1C532.875 124.72 533.155 125.53 533.175 126.53C533.175 127.43 532.925 128.24 532.425 128.96C531.925 129.68 531.215 130.25 530.295 130.67C529.395 131.07 528.355 131.27 527.175 131.27ZM542.849 131.27C541.589 131.27 540.459 131.06 539.459 130.64C538.459 130.2 537.669 129.6 537.089 128.84C536.509 128.06 536.189 127.17 536.129 126.17H538.949C539.029 126.99 539.409 127.66 540.089 128.18C540.789 128.7 541.699 128.96 542.819 128.96C543.859 128.96 544.679 128.73 545.279 128.27C545.879 127.81 546.179 127.23 546.179 126.53C546.179 125.81 545.859 125.28 545.219 124.94C544.579 124.58 543.589 124.23 542.249 123.89C541.029 123.57 540.029 123.25 539.249 122.93C538.489 122.59 537.829 122.1 537.269 121.46C536.729 120.8 536.459 119.94 536.459 118.88C536.459 118.04 536.709 117.27 537.209 116.57C537.709 115.87 538.419 115.32 539.339 114.92C540.259 114.5 541.309 114.29 542.489 114.29C544.309 114.29 545.779 114.75 546.899 115.67C548.019 116.59 548.619 117.85 548.699 119.45H545.969C545.909 118.59 545.559 117.9 544.919 117.38C544.299 116.86 543.459 116.6 542.399 116.6C541.419 116.6 540.639 116.81 540.059 117.23C539.479 117.65 539.189 118.2 539.189 118.88C539.189 119.42 539.359 119.87 539.699 120.23C540.059 120.57 540.499 120.85 541.019 121.07C541.559 121.27 542.299 121.5 543.239 121.76C544.419 122.08 545.379 122.4 546.119 122.72C546.859 123.02 547.489 123.48 548.009 124.1C548.549 124.72 548.829 125.53 548.849 126.53C548.849 127.43 548.599 128.24 548.099 128.96C547.599 129.68 546.889 130.25 545.969 130.67C545.069 131.07 544.029 131.27 542.849 131.27ZM443.826 161.21C443.826 162.95 443.226 164.4 442.026 165.56C440.846 166.7 439.036 167.27 436.596 167.27H432.576V176H429.846V155.09H436.596C438.956 155.09 440.746 155.66 441.966 156.8C443.206 157.94 443.826 159.41 443.826 161.21ZM436.596 165.02C438.116 165.02 439.236 164.69 439.956 164.03C440.676 163.37 441.036 162.43 441.036 161.21C441.036 158.63 439.556 157.34 436.596 157.34H432.576V165.02H436.596ZM449.949 162.23C450.429 161.29 451.109 160.56 451.989 160.04C452.889 159.52 453.979 159.26 455.259 159.26V162.08H454.539C451.479 162.08 449.949 163.74 449.949 167.06V176H447.219V159.56H449.949V162.23ZM465.581 176.27C464.041 176.27 462.641 175.92 461.381 175.22C460.141 174.52 459.161 173.53 458.441 172.25C457.741 170.95 457.391 169.45 457.391 167.75C457.391 166.07 457.751 164.59 458.471 163.31C459.211 162.01 460.211 161.02 461.471 160.34C462.731 159.64 464.141 159.29 465.701 159.29C467.261 159.29 468.671 159.64 469.931 160.34C471.191 161.02 472.181 162 472.901 163.28C473.641 164.56 474.011 166.05 474.011 167.75C474.011 169.45 473.631 170.95 472.871 172.25C472.131 173.53 471.121 174.52 469.841 175.22C468.561 175.92 467.141 176.27 465.581 176.27ZM465.581 173.87C466.561 173.87 467.481 173.64 468.341 173.18C469.201 172.72 469.891 172.03 470.411 171.11C470.951 170.19 471.221 169.07 471.221 167.75C471.221 166.43 470.961 165.31 470.441 164.39C469.921 163.47 469.241 162.79 468.401 162.35C467.561 161.89 466.651 161.66 465.671 161.66C464.671 161.66 463.751 161.89 462.911 162.35C462.091 162.79 461.431 163.47 460.931 164.39C460.431 165.31 460.181 166.43 460.181 167.75C460.181 169.09 460.421 170.22 460.901 171.14C461.401 172.06 462.061 172.75 462.881 173.21C463.701 173.65 464.601 173.87 465.581 173.87ZM476.58 167.75C476.58 166.05 476.92 164.57 477.6 163.31C478.28 162.03 479.22 161.04 480.42 160.34C481.64 159.64 483.03 159.29 484.59 159.29C486.61 159.29 488.27 159.78 489.57 160.76C490.89 161.74 491.76 163.1 492.18 164.84H489.24C488.96 163.84 488.41 163.05 487.59 162.47C486.79 161.89 485.79 161.6 484.59 161.6C483.03 161.6 481.77 162.14 480.81 163.22C479.85 164.28 479.37 165.79 479.37 167.75C479.37 169.73 479.85 171.26 480.81 172.34C481.77 173.42 483.03 173.96 484.59 173.96C485.79 173.96 486.79 173.68 487.59 173.12C488.39 172.56 488.94 171.76 489.24 170.72H492.18C491.74 172.4 490.86 173.75 489.54 174.77C488.22 175.77 486.57 176.27 484.59 176.27C483.03 176.27 481.64 175.92 480.42 175.22C479.22 174.52 478.28 173.53 477.6 172.25C476.92 170.97 476.58 169.47 476.58 167.75ZM510.823 167.15C510.823 167.67 510.793 168.22 510.733 168.8H497.593C497.693 170.42 498.243 171.69 499.243 172.61C500.263 173.51 501.493 173.96 502.933 173.96C504.113 173.96 505.093 173.69 505.873 173.15C506.673 172.59 507.233 171.85 507.553 170.93H510.493C510.053 172.51 509.173 173.8 507.853 174.8C506.533 175.78 504.893 176.27 502.933 176.27C501.373 176.27 499.973 175.92 498.733 175.22C497.513 174.52 496.553 173.53 495.853 172.25C495.153 170.95 494.803 169.45 494.803 167.75C494.803 166.05 495.143 164.56 495.823 163.28C496.503 162 497.453 161.02 498.673 160.34C499.913 159.64 501.333 159.29 502.933 159.29C504.493 159.29 505.873 159.63 507.073 160.31C508.273 160.99 509.193 161.93 509.833 163.13C510.493 164.31 510.823 165.65 510.823 167.15ZM508.003 166.58C508.003 165.54 507.773 164.65 507.313 163.91C506.853 163.15 506.223 162.58 505.423 162.2C504.643 161.8 503.773 161.6 502.813 161.6C501.433 161.6 500.253 162.04 499.273 162.92C498.313 163.8 497.763 165.02 497.623 166.58H508.003ZM520.246 176.27C518.986 176.27 517.856 176.06 516.856 175.64C515.856 175.2 515.066 174.6 514.486 173.84C513.906 173.06 513.586 172.17 513.526 171.17H516.346C516.426 171.99 516.806 172.66 517.486 173.18C518.186 173.7 519.096 173.96 520.216 173.96C521.256 173.96 522.076 173.73 522.676 173.27C523.276 172.81 523.576 172.23 523.576 171.53C523.576 170.81 523.256 170.28 522.616 169.94C521.976 169.58 520.986 169.23 519.646 168.89C518.426 168.57 517.426 168.25 516.646 167.93C515.886 167.59 515.226 167.1 514.666 166.46C514.126 165.8 513.856 164.94 513.856 163.88C513.856 163.04 514.106 162.27 514.606 161.57C515.106 160.87 515.816 160.32 516.736 159.92C517.656 159.5 518.706 159.29 519.886 159.29C521.706 159.29 523.176 159.75 524.296 160.67C525.416 161.59 526.016 162.85 526.096 164.45H523.366C523.306 163.59 522.956 162.9 522.316 162.38C521.696 161.86 520.856 161.6 519.796 161.6C518.816 161.6 518.036 161.81 517.456 162.23C516.876 162.65 516.586 163.2 516.586 163.88C516.586 164.42 516.756 164.87 517.096 165.23C517.456 165.57 517.896 165.85 518.416 166.07C518.956 166.27 519.696 166.5 520.636 166.76C521.816 167.08 522.776 167.4 523.516 167.72C524.256 168.02 524.886 168.48 525.406 169.1C525.946 169.72 526.226 170.53 526.246 171.53C526.246 172.43 525.996 173.24 525.496 173.96C524.996 174.68 524.286 175.25 523.366 175.67C522.466 176.07 521.426 176.27 520.246 176.27ZM535.92 176.27C534.66 176.27 533.53 176.06 532.53 175.64C531.53 175.2 530.74 174.6 530.16 173.84C529.58 173.06 529.26 172.17 529.2 171.17H532.02C532.1 171.99 532.48 172.66 533.16 173.18C533.86 173.7 534.77 173.96 535.89 173.96C536.93 173.96 537.75 173.73 538.35 173.27C538.95 172.81 539.25 172.23 539.25 171.53C539.25 170.81 538.93 170.28 538.29 169.94C537.65 169.58 536.66 169.23 535.32 168.89C534.1 168.57 533.1 168.25 532.32 167.93C531.56 167.59 530.9 167.1 530.34 166.46C529.8 165.8 529.53 164.94 529.53 163.88C529.53 163.04 529.78 162.27 530.28 161.57C530.78 160.87 531.49 160.32 532.41 159.92C533.33 159.5 534.38 159.29 535.56 159.29C537.38 159.29 538.85 159.75 539.97 160.67C541.09 161.59 541.69 162.85 541.77 164.45H539.04C538.98 163.59 538.63 162.9 537.99 162.38C537.37 161.86 536.53 161.6 535.47 161.6C534.49 161.6 533.71 161.81 533.13 162.23C532.55 162.65 532.26 163.2 532.26 163.88C532.26 164.42 532.43 164.87 532.77 165.23C533.13 165.57 533.57 165.85 534.09 166.07C534.63 166.27 535.37 166.5 536.31 166.76C537.49 167.08 538.45 167.4 539.19 167.72C539.93 168.02 540.56 168.48 541.08 169.1C541.62 169.72 541.9 170.53 541.92 171.53C541.92 172.43 541.67 173.24 541.17 173.96C540.67 174.68 539.96 175.25 539.04 175.67C538.14 176.07 537.1 176.27 535.92 176.27ZM406.979 200.24V221H404.249V205.52L397.349 221H395.429L388.499 205.49V221H385.769V200.24H388.709L396.389 217.4L404.069 200.24H406.979ZM410.589 212.72C410.589 211.04 410.929 209.57 411.609 208.31C412.289 207.03 413.219 206.04 414.399 205.34C415.599 204.64 416.929 204.29 418.389 204.29C419.829 204.29 421.079 204.6 422.139 205.22C423.199 205.84 423.989 206.62 424.509 207.56V204.56H427.269V221H424.509V217.94C423.969 218.9 423.159 219.7 422.079 220.34C421.019 220.96 419.779 221.27 418.359 221.27C416.899 221.27 415.579 220.91 414.399 220.19C413.219 219.47 412.289 218.46 411.609 217.16C410.929 215.86 410.589 214.38 410.589 212.72ZM424.509 212.75C424.509 211.51 424.259 210.43 423.759 209.51C423.259 208.59 422.579 207.89 421.719 207.41C420.879 206.91 419.949 206.66 418.929 206.66C417.909 206.66 416.979 206.9 416.139 207.38C415.299 207.86 414.629 208.56 414.129 209.48C413.629 210.4 413.379 211.48 413.379 212.72C413.379 213.98 413.629 215.08 414.129 216.02C414.629 216.94 415.299 217.65 416.139 218.15C416.979 218.63 417.909 218.87 418.929 218.87C419.949 218.87 420.879 218.63 421.719 218.15C422.579 217.65 423.259 216.94 423.759 216.02C424.259 215.08 424.509 213.99 424.509 212.75ZM439.892 204.26C441.892 204.26 443.512 204.87 444.752 206.09C445.992 207.29 446.612 209.03 446.612 211.31V221H443.912V211.7C443.912 210.06 443.502 208.81 442.682 207.95C441.862 207.07 440.742 206.63 439.322 206.63C437.882 206.63 436.732 207.08 435.872 207.98C435.032 208.88 434.612 210.19 434.612 211.91V221H431.882V204.56H434.612V206.9C435.152 206.06 435.882 205.41 436.802 204.95C437.742 204.49 438.772 204.26 439.892 204.26ZM450.052 212.72C450.052 211.04 450.392 209.57 451.072 208.31C451.752 207.03 452.682 206.04 453.862 205.34C455.062 204.64 456.392 204.29 457.852 204.29C459.292 204.29 460.542 204.6 461.602 205.22C462.662 205.84 463.452 206.62 463.972 207.56V204.56H466.732V221H463.972V217.94C463.432 218.9 462.622 219.7 461.542 220.34C460.482 220.96 459.242 221.27 457.822 221.27C456.362 221.27 455.042 220.91 453.862 220.19C452.682 219.47 451.752 218.46 451.072 217.16C450.392 215.86 450.052 214.38 450.052 212.72ZM463.972 212.75C463.972 211.51 463.722 210.43 463.222 209.51C462.722 208.59 462.042 207.89 461.182 207.41C460.342 206.91 459.412 206.66 458.392 206.66C457.372 206.66 456.442 206.9 455.602 207.38C454.762 207.86 454.092 208.56 453.592 209.48C453.092 210.4 452.842 211.48 452.842 212.72C452.842 213.98 453.092 215.08 453.592 216.02C454.092 216.94 454.762 217.65 455.602 218.15C456.442 218.63 457.372 218.87 458.392 218.87C459.412 218.87 460.342 218.63 461.182 218.15C462.042 217.65 462.722 216.94 463.222 216.02C463.722 215.08 463.972 213.99 463.972 212.75ZM478.125 204.29C479.545 204.29 480.785 204.6 481.845 205.22C482.925 205.84 483.725 206.62 484.245 207.56V204.56H487.005V221.36C487.005 222.86 486.685 224.19 486.045 225.35C485.405 226.53 484.485 227.45 483.285 228.11C482.105 228.77 480.725 229.1 479.145 229.1C476.985 229.1 475.185 228.59 473.745 227.57C472.305 226.55 471.455 225.16 471.195 223.4H473.895C474.195 224.4 474.815 225.2 475.755 225.8C476.695 226.42 477.825 226.73 479.145 226.73C480.645 226.73 481.865 226.26 482.805 225.32C483.765 224.38 484.245 223.06 484.245 221.36V217.91C483.705 218.87 482.905 219.67 481.845 220.31C480.785 220.95 479.545 221.27 478.125 221.27C476.665 221.27 475.335 220.91 474.135 220.19C472.955 219.47 472.025 218.46 471.345 217.16C470.665 215.86 470.325 214.38 470.325 212.72C470.325 211.04 470.665 209.57 471.345 208.31C472.025 207.03 472.955 206.04 474.135 205.34C475.335 204.64 476.665 204.29 478.125 204.29ZM484.245 212.75C484.245 211.51 483.995 210.43 483.495 209.51C482.995 208.59 482.315 207.89 481.455 207.41C480.615 206.91 479.685 206.66 478.665 206.66C477.645 206.66 476.715 206.9 475.875 207.38C475.035 207.86 474.365 208.56 473.865 209.48C473.365 210.4 473.115 211.48 473.115 212.72C473.115 213.98 473.365 215.08 473.865 216.02C474.365 216.94 475.035 217.65 475.875 218.15C476.715 218.63 477.645 218.87 478.665 218.87C479.685 218.87 480.615 218.63 481.455 218.15C482.315 217.65 482.995 216.94 483.495 216.02C483.995 215.08 484.245 213.99 484.245 212.75ZM506.619 212.15C506.619 212.67 506.589 213.22 506.529 213.8H493.389C493.489 215.42 494.039 216.69 495.039 217.61C496.059 218.51 497.289 218.96 498.729 218.96C499.909 218.96 500.889 218.69 501.669 218.15C502.469 217.59 503.029 216.85 503.349 215.93H506.289C505.849 217.51 504.969 218.8 503.649 219.8C502.329 220.78 500.689 221.27 498.729 221.27C497.169 221.27 495.769 220.92 494.529 220.22C493.309 219.52 492.349 218.53 491.649 217.25C490.949 215.95 490.599 214.45 490.599 212.75C490.599 211.05 490.939 209.56 491.619 208.28C492.299 207 493.249 206.02 494.469 205.34C495.709 204.64 497.129 204.29 498.729 204.29C500.289 204.29 501.669 204.63 502.869 205.31C504.069 205.99 504.989 206.93 505.629 208.13C506.289 209.31 506.619 210.65 506.619 212.15ZM503.799 211.58C503.799 210.54 503.569 209.65 503.109 208.91C502.649 208.15 502.019 207.58 501.219 207.2C500.439 206.8 499.569 206.6 498.609 206.6C497.229 206.6 496.049 207.04 495.069 207.92C494.109 208.8 493.559 210.02 493.419 211.58H503.799ZM529.992 204.26C531.272 204.26 532.412 204.53 533.412 205.07C534.412 205.59 535.202 206.38 535.782 207.44C536.362 208.5 536.652 209.79 536.652 211.31V221H533.952V211.7C533.952 210.06 533.542 208.81 532.722 207.95C531.922 207.07 530.832 206.63 529.452 206.63C528.032 206.63 526.902 207.09 526.062 208.01C525.222 208.91 524.802 210.22 524.802 211.94V221H522.102V211.7C522.102 210.06 521.692 208.81 520.872 207.95C520.072 207.07 518.982 206.63 517.602 206.63C516.182 206.63 515.052 207.09 514.212 208.01C513.372 208.91 512.952 210.22 512.952 211.94V221H510.222V204.56H512.952V206.93C513.492 206.07 514.212 205.41 515.112 204.95C516.032 204.49 517.042 204.26 518.142 204.26C519.522 204.26 520.742 204.57 521.802 205.19C522.862 205.81 523.652 206.72 524.172 207.92C524.632 206.76 525.392 205.86 526.452 205.22C527.512 204.58 528.692 204.26 529.992 204.26ZM556.13 212.15C556.13 212.67 556.1 213.22 556.04 213.8H542.9C543 215.42 543.55 216.69 544.55 217.61C545.57 218.51 546.8 218.96 548.24 218.96C549.42 218.96 550.4 218.69 551.18 218.15C551.98 217.59 552.54 216.85 552.86 215.93H555.8C555.36 217.51 554.48 218.8 553.16 219.8C551.84 220.78 550.2 221.27 548.24 221.27C546.68 221.27 545.28 220.92 544.04 220.22C542.82 219.52 541.86 218.53 541.16 217.25C540.46 215.95 540.11 214.45 540.11 212.75C540.11 211.05 540.45 209.56 541.13 208.28C541.81 207 542.76 206.02 543.98 205.34C545.22 204.64 546.64 204.29 548.24 204.29C549.8 204.29 551.18 204.63 552.38 205.31C553.58 205.99 554.5 206.93 555.14 208.13C555.8 209.31 556.13 210.65 556.13 212.15ZM553.31 211.58C553.31 210.54 553.08 209.65 552.62 208.91C552.16 208.15 551.53 207.58 550.73 207.2C549.95 206.8 549.08 206.6 548.12 206.6C546.74 206.6 545.56 207.04 544.58 207.92C543.62 208.8 543.07 210.02 542.93 211.58H553.31ZM567.744 204.26C569.744 204.26 571.364 204.87 572.604 206.09C573.844 207.29 574.464 209.03 574.464 211.31V221H571.764V211.7C571.764 210.06 571.354 208.81 570.534 207.95C569.714 207.07 568.594 206.63 567.174 206.63C565.734 206.63 564.584 207.08 563.724 207.98C562.884 208.88 562.464 210.19 562.464 211.91V221H559.734V204.56H562.464V206.9C563.004 206.06 563.734 205.41 564.654 204.95C565.594 204.49 566.624 204.26 567.744 204.26ZM582.253 206.81V216.5C582.253 217.3 582.423 217.87 582.763 218.21C583.103 218.53 583.693 218.69 584.533 218.69H586.543V221H584.083C582.563 221 581.423 220.65 580.663 219.95C579.903 219.25 579.523 218.1 579.523 216.5V206.81H577.393V204.56H579.523V200.42H582.253V204.56H586.543V206.81H582.253Z" fill="white"/>
<path d="M447.977 587.09C450.257 587.09 452.227 587.52 453.887 588.38C455.567 589.22 456.847 590.43 457.727 592.01C458.627 593.59 459.077 595.45 459.077 597.59C459.077 599.73 458.627 601.59 457.727 603.17C456.847 604.73 455.567 605.93 453.887 606.77C452.227 607.59 450.257 608 447.977 608H441.467V587.09H447.977ZM447.977 605.75C450.677 605.75 452.737 605.04 454.157 603.62C455.577 602.18 456.287 600.17 456.287 597.59C456.287 594.99 455.567 592.96 454.127 591.5C452.707 590.04 450.657 589.31 447.977 589.31H444.197V605.75H447.977ZM461.658 599.72C461.658 598.04 461.998 596.57 462.678 595.31C463.358 594.03 464.288 593.04 465.468 592.34C466.668 591.64 467.998 591.29 469.458 591.29C470.898 591.29 472.148 591.6 473.208 592.22C474.268 592.84 475.058 593.62 475.578 594.56V591.56H478.338V608H475.578V604.94C475.038 605.9 474.228 606.7 473.148 607.34C472.088 607.96 470.848 608.27 469.428 608.27C467.968 608.27 466.648 607.91 465.468 607.19C464.288 606.47 463.358 605.46 462.678 604.16C461.998 602.86 461.658 601.38 461.658 599.72ZM475.578 599.75C475.578 598.51 475.328 597.43 474.828 596.51C474.328 595.59 473.648 594.89 472.788 594.41C471.948 593.91 471.018 593.66 469.998 593.66C468.978 593.66 468.048 593.9 467.208 594.38C466.368 594.86 465.698 595.56 465.198 596.48C464.698 597.4 464.448 598.48 464.448 599.72C464.448 600.98 464.698 602.08 465.198 603.02C465.698 603.94 466.368 604.65 467.208 605.15C468.048 605.63 468.978 605.87 469.998 605.87C471.018 605.87 471.948 605.63 472.788 605.15C473.648 604.65 474.328 603.94 474.828 603.02C475.328 602.08 475.578 600.99 475.578 599.75ZM486.282 593.81V603.5C486.282 604.3 486.452 604.87 486.792 605.21C487.132 605.53 487.722 605.69 488.562 605.69H490.572V608H488.112C486.592 608 485.452 607.65 484.692 606.95C483.932 606.25 483.552 605.1 483.552 603.5V593.81H481.422V591.56H483.552V587.42H486.282V591.56H490.572V593.81H486.282ZM492.859 599.72C492.859 598.04 493.199 596.57 493.879 595.31C494.559 594.03 495.489 593.04 496.669 592.34C497.869 591.64 499.199 591.29 500.659 591.29C502.099 591.29 503.349 591.6 504.409 592.22C505.469 592.84 506.259 593.62 506.779 594.56V591.56H509.539V608H506.779V604.94C506.239 605.9 505.429 606.7 504.349 607.34C503.289 607.96 502.049 608.27 500.629 608.27C499.169 608.27 497.849 607.91 496.669 607.19C495.489 606.47 494.559 605.46 493.879 604.16C493.199 602.86 492.859 601.38 492.859 599.72ZM506.779 599.75C506.779 598.51 506.529 597.43 506.029 596.51C505.529 595.59 504.849 594.89 503.989 594.41C503.149 593.91 502.219 593.66 501.199 593.66C500.179 593.66 499.249 593.9 498.409 594.38C497.569 594.86 496.899 595.56 496.399 596.48C495.899 597.4 495.649 598.48 495.649 599.72C495.649 600.98 495.899 602.08 496.399 603.02C496.899 603.94 497.569 604.65 498.409 605.15C499.249 605.63 500.179 605.87 501.199 605.87C502.219 605.87 503.149 605.63 503.989 605.15C504.849 604.65 505.529 603.94 506.029 603.02C506.529 602.08 506.779 600.99 506.779 599.75ZM396.979 632.24V653H394.249V637.52L387.349 653H385.429L378.499 637.49V653H375.769V632.24H378.709L386.389 649.4L394.069 632.24H396.979ZM400.589 644.72C400.589 643.04 400.929 641.57 401.609 640.31C402.289 639.03 403.219 638.04 404.399 637.34C405.599 636.64 406.929 636.29 408.389 636.29C409.829 636.29 411.079 636.6 412.139 637.22C413.199 637.84 413.989 638.62 414.509 639.56V636.56H417.269V653H414.509V649.94C413.969 650.9 413.159 651.7 412.079 652.34C411.019 652.96 409.779 653.27 408.359 653.27C406.899 653.27 405.579 652.91 404.399 652.19C403.219 651.47 402.289 650.46 401.609 649.16C400.929 647.86 400.589 646.38 400.589 644.72ZM414.509 644.75C414.509 643.51 414.259 642.43 413.759 641.51C413.259 640.59 412.579 639.89 411.719 639.41C410.879 638.91 409.949 638.66 408.929 638.66C407.909 638.66 406.979 638.9 406.139 639.38C405.299 639.86 404.629 640.56 404.129 641.48C403.629 642.4 403.379 643.48 403.379 644.72C403.379 645.98 403.629 647.08 404.129 648.02C404.629 648.94 405.299 649.65 406.139 650.15C406.979 650.63 407.909 650.87 408.929 650.87C409.949 650.87 410.879 650.63 411.719 650.15C412.579 649.65 413.259 648.94 413.759 648.02C414.259 647.08 414.509 645.99 414.509 644.75ZM429.892 636.26C431.892 636.26 433.512 636.87 434.752 638.09C435.992 639.29 436.612 641.03 436.612 643.31V653H433.912V643.7C433.912 642.06 433.502 640.81 432.682 639.95C431.862 639.07 430.742 638.63 429.322 638.63C427.882 638.63 426.732 639.08 425.872 639.98C425.032 640.88 424.612 642.19 424.612 643.91V653H421.882V636.56H424.612V638.9C425.152 638.06 425.882 637.41 426.802 636.95C427.742 636.49 428.772 636.26 429.892 636.26ZM440.052 644.72C440.052 643.04 440.392 641.57 441.072 640.31C441.752 639.03 442.682 638.04 443.862 637.34C445.062 636.64 446.392 636.29 447.852 636.29C449.292 636.29 450.542 636.6 451.602 637.22C452.662 637.84 453.452 638.62 453.972 639.56V636.56H456.732V653H453.972V649.94C453.432 650.9 452.622 651.7 451.542 652.34C450.482 652.96 449.242 653.27 447.822 653.27C446.362 653.27 445.042 652.91 443.862 652.19C442.682 651.47 441.752 650.46 441.072 649.16C440.392 647.86 440.052 646.38 440.052 644.72ZM453.972 644.75C453.972 643.51 453.722 642.43 453.222 641.51C452.722 640.59 452.042 639.89 451.182 639.41C450.342 638.91 449.412 638.66 448.392 638.66C447.372 638.66 446.442 638.9 445.602 639.38C444.762 639.86 444.092 640.56 443.592 641.48C443.092 642.4 442.842 643.48 442.842 644.72C442.842 645.98 443.092 647.08 443.592 648.02C444.092 648.94 444.762 649.65 445.602 650.15C446.442 650.63 447.372 650.87 448.392 650.87C449.412 650.87 450.342 650.63 451.182 650.15C452.042 649.65 452.722 648.94 453.222 648.02C453.722 647.08 453.972 645.99 453.972 644.75ZM468.125 636.29C469.545 636.29 470.785 636.6 471.845 637.22C472.925 637.84 473.725 638.62 474.245 639.56V636.56H477.005V653.36C477.005 654.86 476.685 656.19 476.045 657.35C475.405 658.53 474.485 659.45 473.285 660.11C472.105 660.77 470.725 661.1 469.145 661.1C466.985 661.1 465.185 660.59 463.745 659.57C462.305 658.55 461.455 657.16 461.195 655.4H463.895C464.195 656.4 464.815 657.2 465.755 657.8C466.695 658.42 467.825 658.73 469.145 658.73C470.645 658.73 471.865 658.26 472.805 657.32C473.765 656.38 474.245 655.06 474.245 653.36V649.91C473.705 650.87 472.905 651.67 471.845 652.31C470.785 652.95 469.545 653.27 468.125 653.27C466.665 653.27 465.335 652.91 464.135 652.19C462.955 651.47 462.025 650.46 461.345 649.16C460.665 647.86 460.325 646.38 460.325 644.72C460.325 643.04 460.665 641.57 461.345 640.31C462.025 639.03 462.955 638.04 464.135 637.34C465.335 636.64 466.665 636.29 468.125 636.29ZM474.245 644.75C474.245 643.51 473.995 642.43 473.495 641.51C472.995 640.59 472.315 639.89 471.455 639.41C470.615 638.91 469.685 638.66 468.665 638.66C467.645 638.66 466.715 638.9 465.875 639.38C465.035 639.86 464.365 640.56 463.865 641.48C463.365 642.4 463.115 643.48 463.115 644.72C463.115 645.98 463.365 647.08 463.865 648.02C464.365 648.94 465.035 649.65 465.875 650.15C466.715 650.63 467.645 650.87 468.665 650.87C469.685 650.87 470.615 650.63 471.455 650.15C472.315 649.65 472.995 648.94 473.495 648.02C473.995 647.08 474.245 645.99 474.245 644.75ZM496.619 644.15C496.619 644.67 496.589 645.22 496.529 645.8H483.389C483.489 647.42 484.039 648.69 485.039 649.61C486.059 650.51 487.289 650.96 488.729 650.96C489.909 650.96 490.889 650.69 491.669 650.15C492.469 649.59 493.029 648.85 493.349 647.93H496.289C495.849 649.51 494.969 650.8 493.649 651.8C492.329 652.78 490.689 653.27 488.729 653.27C487.169 653.27 485.769 652.92 484.529 652.22C483.309 651.52 482.349 650.53 481.649 649.25C480.949 647.95 480.599 646.45 480.599 644.75C480.599 643.05 480.939 641.56 481.619 640.28C482.299 639 483.249 638.02 484.469 637.34C485.709 636.64 487.129 636.29 488.729 636.29C490.289 636.29 491.669 636.63 492.869 637.31C494.069 637.99 494.989 638.93 495.629 640.13C496.289 641.31 496.619 642.65 496.619 644.15ZM493.799 643.58C493.799 642.54 493.569 641.65 493.109 640.91C492.649 640.15 492.019 639.58 491.219 639.2C490.439 638.8 489.569 638.6 488.609 638.6C487.229 638.6 486.049 639.04 485.069 639.92C484.109 640.8 483.559 642.02 483.419 643.58H493.799ZM519.992 636.26C521.272 636.26 522.412 636.53 523.412 637.07C524.412 637.59 525.202 638.38 525.782 639.44C526.362 640.5 526.652 641.79 526.652 643.31V653H523.952V643.7C523.952 642.06 523.542 640.81 522.722 639.95C521.922 639.07 520.832 638.63 519.452 638.63C518.032 638.63 516.902 639.09 516.062 640.01C515.222 640.91 514.802 642.22 514.802 643.94V653H512.102V643.7C512.102 642.06 511.692 640.81 510.872 639.95C510.072 639.07 508.982 638.63 507.602 638.63C506.182 638.63 505.052 639.09 504.212 640.01C503.372 640.91 502.952 642.22 502.952 643.94V653H500.222V636.56H502.952V638.93C503.492 638.07 504.212 637.41 505.112 636.95C506.032 636.49 507.042 636.26 508.142 636.26C509.522 636.26 510.742 636.57 511.802 637.19C512.862 637.81 513.652 638.72 514.172 639.92C514.632 638.76 515.392 637.86 516.452 637.22C517.512 636.58 518.692 636.26 519.992 636.26ZM546.13 644.15C546.13 644.67 546.1 645.22 546.04 645.8H532.9C533 647.42 533.55 648.69 534.55 649.61C535.57 650.51 536.8 650.96 538.24 650.96C539.42 650.96 540.4 650.69 541.18 650.15C541.98 649.59 542.54 648.85 542.86 647.93H545.8C545.36 649.51 544.48 650.8 543.16 651.8C541.84 652.78 540.2 653.27 538.24 653.27C536.68 653.27 535.28 652.92 534.04 652.22C532.82 651.52 531.86 650.53 531.16 649.25C530.46 647.95 530.11 646.45 530.11 644.75C530.11 643.05 530.45 641.56 531.13 640.28C531.81 639 532.76 638.02 533.98 637.34C535.22 636.64 536.64 636.29 538.24 636.29C539.8 636.29 541.18 636.63 542.38 637.31C543.58 637.99 544.5 638.93 545.14 640.13C545.8 641.31 546.13 642.65 546.13 644.15ZM543.31 643.58C543.31 642.54 543.08 641.65 542.62 640.91C542.16 640.15 541.53 639.58 540.73 639.2C539.95 638.8 539.08 638.6 538.12 638.6C536.74 638.6 535.56 639.04 534.58 639.92C533.62 640.8 533.07 642.02 532.93 643.58H543.31ZM557.744 636.26C559.744 636.26 561.364 636.87 562.604 638.09C563.844 639.29 564.464 641.03 564.464 643.31V653H561.764V643.7C561.764 642.06 561.354 640.81 560.534 639.95C559.714 639.07 558.594 638.63 557.174 638.63C555.734 638.63 554.584 639.08 553.724 639.98C552.884 640.88 552.464 642.19 552.464 643.91V653H549.734V636.56H552.464V638.9C553.004 638.06 553.734 637.41 554.654 636.95C555.594 636.49 556.624 636.26 557.744 636.26ZM572.253 638.81V648.5C572.253 649.3 572.423 649.87 572.763 650.21C573.103 650.53 573.693 650.69 574.533 650.69H576.543V653H574.083C572.563 653 571.423 652.65 570.663 651.95C569.903 651.25 569.523 650.1 569.523 648.5V638.81H567.393V636.56H569.523V632.42H572.253V636.56H576.543V638.81H572.253Z" fill="white"/>
<path d="M381 373.92C383.96 373.92 386.547 374.507 388.76 375.68C390.973 376.853 392.68 378.507 393.88 380.64C395.107 382.747 395.72 385.187 395.72 387.96C395.72 390.707 395.107 393.147 393.88 395.28C392.68 397.413 390.96 399.067 388.72 400.24C386.507 401.413 383.933 402 381 402H370.48V373.92H381ZM380.56 396.08C383.147 396.08 385.16 395.373 386.6 393.96C388.04 392.547 388.76 390.547 388.76 387.96C388.76 385.373 388.04 383.36 386.6 381.92C385.16 380.48 383.147 379.76 380.56 379.76H377.32V396.08H380.56ZM417.023 397.04H406.543L404.863 402H397.703L407.863 373.92H415.783L425.943 402H418.703L417.023 397.04ZM415.263 391.76L411.783 381.48L408.343 391.76H415.263ZM449.235 373.92V379.4H441.795V402H434.955V379.4H427.515V373.92H449.235ZM465.948 402.28C463.308 402.28 460.881 401.667 458.668 400.44C456.481 399.213 454.734 397.507 453.428 395.32C452.147 393.107 451.507 390.627 451.507 387.88C451.507 385.133 452.147 382.667 453.428 380.48C454.734 378.293 456.481 376.587 458.668 375.36C460.881 374.133 463.308 373.52 465.948 373.52C468.588 373.52 471.001 374.133 473.188 375.36C475.401 376.587 477.134 378.293 478.388 380.48C479.668 382.667 480.308 385.133 480.308 387.88C480.308 390.627 479.668 393.107 478.388 395.32C477.108 397.507 475.374 399.213 473.188 400.44C471.001 401.667 468.588 402.28 465.948 402.28ZM465.948 396.04C468.188 396.04 469.974 395.293 471.307 393.8C472.668 392.307 473.348 390.333 473.348 387.88C473.348 385.4 472.668 383.427 471.307 381.96C469.974 380.467 468.188 379.72 465.948 379.72C463.681 379.72 461.868 380.453 460.508 381.92C459.174 383.387 458.508 385.373 458.508 387.88C458.508 390.36 459.174 392.347 460.508 393.84C461.868 395.307 463.681 396.04 465.948 396.04ZM515.913 373.92V402H509.073V385.16L502.793 402H497.273L490.953 385.12V402H484.113V373.92H492.193L500.073 393.36L507.873 373.92H515.913ZM527.672 379.4V385.08H536.832V390.36H527.672V396.52H538.032V402H520.832V373.92H538.032V379.4H527.672Z" fill="white"/>
</svg>
