<svg width="654" height="788" viewBox="0 0 654 788" fill="none" xmlns="http://www.w3.org/2000/svg">
<circle cx="168" cy="385" r="165" stroke="black" stroke-width="2"/>
<circle cx="283" cy="385" r="281" stroke="black" stroke-width="4"/>
<circle cx="487" cy="167" r="166" fill="white" stroke="black" stroke-width="2"/>
<circle cx="477" cy="621" r="166" fill="white" stroke="black" stroke-width="2"/>
<path d="M99.0438 339.29C100.164 339.49 101.114 340.08 101.894 341.06C102.674 342.04 103.064 343.15 103.064 344.39C103.064 345.45 102.784 346.41 102.224 347.27C101.684 348.11 100.894 348.78 99.8538 349.28C98.8138 349.76 97.6038 350 96.2238 350H87.8838V329.15H95.8338C97.2538 329.15 98.4738 329.39 99.4938 329.87C100.514 330.35 101.284 331 101.804 331.82C102.324 332.62 102.584 333.52 102.584 334.52C102.584 335.72 102.264 336.72 101.624 337.52C100.984 338.32 100.124 338.91 99.0438 339.29ZM91.3038 337.91H95.5338C96.6538 337.91 97.5238 337.66 98.1438 337.16C98.7838 336.64 99.1038 335.9 99.1038 334.94C99.1038 334 98.7838 333.27 98.1438 332.75C97.5238 332.21 96.6538 331.94 95.5338 331.94H91.3038V337.91ZM95.9238 347.21C97.0838 347.21 97.9938 346.93 98.6538 346.37C99.3138 345.81 99.6438 345.03 99.6438 344.03C99.6438 343.01 99.2938 342.2 98.5938 341.6C97.8938 341 96.9638 340.7 95.8038 340.7H91.3038V347.21H95.9238ZM110.2 327.8V350H106.78V327.8H110.2ZM121.86 350.27C120.3 350.27 118.89 349.92 117.63 349.22C116.37 348.5 115.38 347.5 114.66 346.22C113.94 344.92 113.58 343.42 113.58 341.72C113.58 340.04 113.95 338.55 114.69 337.25C115.43 335.95 116.44 334.95 117.72 334.25C119 333.55 120.43 333.2 122.01 333.2C123.59 333.2 125.02 333.55 126.3 334.25C127.58 334.95 128.59 335.95 129.33 337.25C130.07 338.55 130.44 340.04 130.44 341.72C130.44 343.4 130.06 344.89 129.3 346.19C128.54 347.49 127.5 348.5 126.18 349.22C124.88 349.92 123.44 350.27 121.86 350.27ZM121.86 347.3C122.74 347.3 123.56 347.09 124.32 346.67C125.1 346.25 125.73 345.62 126.21 344.78C126.69 343.94 126.93 342.92 126.93 341.72C126.93 340.52 126.7 339.51 126.24 338.69C125.78 337.85 125.17 337.22 124.41 336.8C123.65 336.38 122.83 336.17 121.95 336.17C121.07 336.17 120.25 336.38 119.49 336.8C118.75 337.22 118.16 337.85 117.72 338.69C117.28 339.51 117.06 340.52 117.06 341.72C117.06 343.5 117.51 344.88 118.41 345.86C119.33 346.82 120.48 347.3 121.86 347.3ZM132.681 341.72C132.681 340.02 133.021 338.53 133.701 337.25C134.401 335.95 135.361 334.95 136.581 334.25C137.801 333.55 139.201 333.2 140.781 333.2C142.781 333.2 144.431 333.68 145.731 334.64C147.051 335.58 147.941 336.93 148.401 338.69H144.711C144.411 337.87 143.931 337.23 143.271 336.77C142.611 336.31 141.781 336.08 140.781 336.08C139.381 336.08 138.261 336.58 137.421 337.58C136.601 338.56 136.191 339.94 136.191 341.72C136.191 343.5 136.601 344.89 137.421 345.89C138.261 346.89 139.381 347.39 140.781 347.39C142.761 347.39 144.071 346.52 144.711 344.78H148.401C147.921 346.46 147.021 347.8 145.701 348.8C144.381 349.78 142.741 350.27 140.781 350.27C139.201 350.27 137.801 349.92 136.581 349.22C135.361 348.5 134.401 347.5 133.701 346.22C133.021 344.92 132.681 343.42 132.681 341.72ZM158.35 341.75L165.97 350H161.35L155.23 342.89V350H151.81V327.8H155.23V340.7L161.23 333.47H165.97L158.35 341.75ZM167.281 341.72C167.281 340.02 167.621 338.53 168.301 337.25C169.001 335.95 169.961 334.95 171.181 334.25C172.401 333.55 173.801 333.2 175.381 333.2C177.381 333.2 179.031 333.68 180.331 334.64C181.651 335.58 182.541 336.93 183.001 338.69H179.311C179.011 337.87 178.531 337.23 177.871 336.77C177.211 336.31 176.381 336.08 175.381 336.08C173.981 336.08 172.861 336.58 172.021 337.58C171.201 338.56 170.791 339.94 170.791 341.72C170.791 343.5 171.201 344.89 172.021 345.89C172.861 346.89 173.981 347.39 175.381 347.39C177.361 347.39 178.671 346.52 179.311 344.78H183.001C182.521 346.46 181.621 347.8 180.301 348.8C178.981 349.78 177.341 350.27 175.381 350.27C173.801 350.27 172.401 349.92 171.181 349.22C169.961 348.5 169.001 347.5 168.301 346.22C167.621 344.92 167.281 343.42 167.281 341.72ZM194.959 333.2C196.219 333.2 197.339 333.47 198.319 334.01C199.319 334.55 200.099 335.35 200.659 336.41C201.239 337.47 201.529 338.75 201.529 340.25V350H198.139V340.76C198.139 339.28 197.769 338.15 197.029 337.37C196.289 336.57 195.279 336.17 193.999 336.17C192.719 336.17 191.699 336.57 190.939 337.37C190.199 338.15 189.829 339.28 189.829 340.76V350H186.409V327.8H189.829V335.39C190.409 334.69 191.139 334.15 192.019 333.77C192.919 333.39 193.899 333.2 194.959 333.2ZM204.752 341.66C204.752 340 205.092 338.53 205.772 337.25C206.472 335.97 207.412 334.98 208.592 334.28C209.792 333.56 211.112 333.2 212.552 333.2C213.852 333.2 214.982 333.46 215.942 333.98C216.922 334.48 217.702 335.11 218.282 335.87V333.47H221.732V350H218.282V347.54C217.702 348.32 216.912 348.97 215.912 349.49C214.912 350.01 213.772 350.27 212.492 350.27C211.072 350.27 209.772 349.91 208.592 349.19C207.412 348.45 206.472 347.43 205.772 346.13C205.092 344.81 204.752 343.32 204.752 341.66ZM218.282 341.72C218.282 340.58 218.042 339.59 217.562 338.75C217.102 337.91 216.492 337.27 215.732 336.83C214.972 336.39 214.152 336.17 213.272 336.17C212.392 336.17 211.572 336.39 210.812 336.83C210.052 337.25 209.432 337.88 208.952 338.72C208.492 339.54 208.262 340.52 208.262 341.66C208.262 342.8 208.492 343.8 208.952 344.66C209.432 345.52 210.052 346.18 210.812 346.64C211.592 347.08 212.412 347.3 213.272 347.3C214.152 347.3 214.972 347.08 215.732 346.64C216.492 346.2 217.102 345.56 217.562 344.72C218.042 343.86 218.282 342.86 218.282 341.72ZM227.964 331.28C227.344 331.28 226.824 331.07 226.404 330.65C225.984 330.23 225.774 329.71 225.774 329.09C225.774 328.47 225.984 327.95 226.404 327.53C226.824 327.11 227.344 326.9 227.964 326.9C228.564 326.9 229.074 327.11 229.494 327.53C229.914 327.95 230.124 328.47 230.124 329.09C230.124 329.71 229.914 330.23 229.494 330.65C229.074 331.07 228.564 331.28 227.964 331.28ZM229.644 333.47V350H226.224V333.47H229.644ZM242.474 333.2C243.774 333.2 244.934 333.47 245.954 334.01C246.994 334.55 247.804 335.35 248.384 336.41C248.964 337.47 249.254 338.75 249.254 340.25V350H245.864V340.76C245.864 339.28 245.494 338.15 244.754 337.37C244.014 336.57 243.004 336.17 241.724 336.17C240.444 336.17 239.424 336.57 238.664 337.37C237.924 338.15 237.554 339.28 237.554 340.76V350H234.134V333.47H237.554V335.36C238.114 334.68 238.824 334.15 239.684 333.77C240.564 333.39 241.494 333.2 242.474 333.2ZM79.4844 395.27C78.1844 395.27 77.0144 395.04 75.9744 394.58C74.9544 394.1 74.1444 393.46 73.5444 392.66C72.9444 391.84 72.6244 390.93 72.5844 389.93H76.1244C76.1844 390.63 76.5144 391.22 77.1144 391.7C77.7344 392.16 78.5044 392.39 79.4244 392.39C80.3844 392.39 81.1244 392.21 81.6444 391.85C82.1844 391.47 82.4544 390.99 82.4544 390.41C82.4544 389.79 82.1544 389.33 81.5544 389.03C80.9744 388.73 80.0444 388.4 78.7644 388.04C77.5244 387.7 76.5144 387.37 75.7344 387.05C74.9544 386.73 74.2744 386.24 73.6944 385.58C73.1344 384.92 72.8544 384.05 72.8544 382.97C72.8544 382.09 73.1144 381.29 73.6344 380.57C74.1544 379.83 74.8944 379.25 75.8544 378.83C76.8344 378.41 77.9544 378.2 79.2144 378.2C81.0944 378.2 82.6044 378.68 83.7444 379.64C84.9044 380.58 85.5244 381.87 85.6044 383.51H82.1844C82.1244 382.77 81.8244 382.18 81.2844 381.74C80.7444 381.3 80.0144 381.08 79.0944 381.08C78.1944 381.08 77.5044 381.25 77.0244 381.59C76.5444 381.93 76.3044 382.38 76.3044 382.94C76.3044 383.38 76.4644 383.75 76.7844 384.05C77.1044 384.35 77.4944 384.59 77.9544 384.77C78.4144 384.93 79.0944 385.14 79.9944 385.4C81.1944 385.72 82.1744 386.05 82.9344 386.39C83.7144 386.71 84.3844 387.19 84.9444 387.83C85.5044 388.47 85.7944 389.32 85.8144 390.38C85.8144 391.32 85.5544 392.16 85.0344 392.9C84.5144 393.64 83.7744 394.22 82.8144 394.64C81.8744 395.06 80.7644 395.27 79.4844 395.27ZM104.48 378.47V395H101.06V393.05C100.52 393.73 99.8098 394.27 98.9298 394.67C98.0698 395.05 97.1498 395.24 96.1698 395.24C94.8698 395.24 93.6998 394.97 92.6598 394.43C91.6398 393.89 90.8298 393.09 90.2298 392.03C89.6498 390.97 89.3598 389.69 89.3598 388.19V378.47H92.7498V387.68C92.7498 389.16 93.1198 390.3 93.8598 391.1C94.5998 391.88 95.6098 392.27 96.8898 392.27C98.1698 392.27 99.1798 391.88 99.9198 391.1C100.68 390.3 101.06 389.16 101.06 387.68V378.47H104.48ZM112.412 380.9C112.992 380.14 113.782 379.5 114.782 378.98C115.782 378.46 116.912 378.2 118.172 378.2C119.612 378.2 120.922 378.56 122.102 379.28C123.302 379.98 124.242 380.97 124.922 382.25C125.602 383.53 125.942 385 125.942 386.66C125.942 388.32 125.602 389.81 124.922 391.13C124.242 392.43 123.302 393.45 122.102 394.19C120.922 394.91 119.612 395.27 118.172 395.27C116.912 395.27 115.792 395.02 114.812 394.52C113.832 394 113.032 393.36 112.412 392.6V402.86H108.992V378.47H112.412V380.9ZM122.462 386.66C122.462 385.52 122.222 384.54 121.742 383.72C121.282 382.88 120.662 382.25 119.882 381.83C119.122 381.39 118.302 381.17 117.422 381.17C116.562 381.17 115.742 381.39 114.962 381.83C114.202 382.27 113.582 382.91 113.102 383.75C112.642 384.59 112.412 385.58 112.412 386.72C112.412 387.86 112.642 388.86 113.102 389.72C113.582 390.56 114.202 391.2 114.962 391.64C115.742 392.08 116.562 392.3 117.422 392.3C118.302 392.3 119.122 392.08 119.882 391.64C120.662 391.18 121.282 390.52 121.742 389.66C122.222 388.8 122.462 387.8 122.462 386.66ZM132.744 380.9C133.324 380.14 134.114 379.5 135.114 378.98C136.114 378.46 137.244 378.2 138.504 378.2C139.944 378.2 141.254 378.56 142.434 379.28C143.634 379.98 144.574 380.97 145.254 382.25C145.934 383.53 146.274 385 146.274 386.66C146.274 388.32 145.934 389.81 145.254 391.13C144.574 392.43 143.634 393.45 142.434 394.19C141.254 394.91 139.944 395.27 138.504 395.27C137.244 395.27 136.124 395.02 135.144 394.52C134.164 394 133.364 393.36 132.744 392.6V402.86H129.324V378.47H132.744V380.9ZM142.794 386.66C142.794 385.52 142.554 384.54 142.074 383.72C141.614 382.88 140.994 382.25 140.214 381.83C139.454 381.39 138.634 381.17 137.754 381.17C136.894 381.17 136.074 381.39 135.294 381.83C134.534 382.27 133.914 382.91 133.434 383.75C132.974 384.59 132.744 385.58 132.744 386.72C132.744 387.86 132.974 388.86 133.434 389.72C133.914 390.56 134.534 391.2 135.294 391.64C136.074 392.08 136.894 392.3 137.754 392.3C138.634 392.3 139.454 392.08 140.214 391.64C140.994 391.18 141.614 390.52 142.074 389.66C142.554 388.8 142.794 387.8 142.794 386.66ZM153.076 372.8V395H149.656V372.8H153.076ZM172.446 378.47L162.306 402.77H158.766L162.126 394.73L155.616 378.47H159.426L164.076 391.07L168.906 378.47H172.446ZM181.68 386.72C181.68 385.02 182.02 383.53 182.7 382.25C183.4 380.95 184.36 379.95 185.58 379.25C186.8 378.55 188.2 378.2 189.78 378.2C191.78 378.2 193.43 378.68 194.73 379.64C196.05 380.58 196.94 381.93 197.4 383.69H193.71C193.41 382.87 192.93 382.23 192.27 381.77C191.61 381.31 190.78 381.08 189.78 381.08C188.38 381.08 187.26 381.58 186.42 382.58C185.6 383.56 185.19 384.94 185.19 386.72C185.19 388.5 185.6 389.89 186.42 390.89C187.26 391.89 188.38 392.39 189.78 392.39C191.76 392.39 193.07 391.52 193.71 389.78H197.4C196.92 391.46 196.02 392.8 194.7 393.8C193.38 394.78 191.74 395.27 189.78 395.27C188.2 395.27 186.8 394.92 185.58 394.22C184.36 393.5 183.4 392.5 182.7 391.22C182.02 389.92 181.68 388.42 181.68 386.72ZM209.359 378.2C210.619 378.2 211.739 378.47 212.719 379.01C213.719 379.55 214.499 380.35 215.059 381.41C215.639 382.47 215.929 383.75 215.929 385.25V395H212.539V385.76C212.539 384.28 212.169 383.15 211.429 382.37C210.689 381.57 209.679 381.17 208.399 381.17C207.119 381.17 206.099 381.57 205.339 382.37C204.599 383.15 204.229 384.28 204.229 385.76V395H200.809V372.8H204.229V380.39C204.809 379.69 205.539 379.15 206.419 378.77C207.319 378.39 208.299 378.2 209.359 378.2ZM219.151 386.66C219.151 385 219.491 383.53 220.171 382.25C220.871 380.97 221.811 379.98 222.991 379.28C224.191 378.56 225.511 378.2 226.951 378.2C228.251 378.2 229.381 378.46 230.341 378.98C231.321 379.48 232.101 380.11 232.681 380.87V378.47H236.131V395H232.681V392.54C232.101 393.32 231.311 393.97 230.311 394.49C229.311 395.01 228.171 395.27 226.891 395.27C225.471 395.27 224.171 394.91 222.991 394.19C221.811 393.45 220.871 392.43 220.171 391.13C219.491 389.81 219.151 388.32 219.151 386.66ZM232.681 386.72C232.681 385.58 232.441 384.59 231.961 383.75C231.501 382.91 230.891 382.27 230.131 381.83C229.371 381.39 228.551 381.17 227.671 381.17C226.791 381.17 225.971 381.39 225.211 381.83C224.451 382.25 223.831 382.88 223.351 383.72C222.891 384.54 222.661 385.52 222.661 386.66C222.661 387.8 222.891 388.8 223.351 389.66C223.831 390.52 224.451 391.18 225.211 391.64C225.991 392.08 226.811 392.3 227.671 392.3C228.551 392.3 229.371 392.08 230.131 391.64C230.891 391.2 231.501 390.56 231.961 389.72C232.441 388.86 232.681 387.86 232.681 386.72ZM242.363 376.28C241.743 376.28 241.223 376.07 240.803 375.65C240.383 375.23 240.173 374.71 240.173 374.09C240.173 373.47 240.383 372.95 240.803 372.53C241.223 372.11 241.743 371.9 242.363 371.9C242.963 371.9 243.473 372.11 243.893 372.53C244.313 372.95 244.523 373.47 244.523 374.09C244.523 374.71 244.313 375.23 243.893 375.65C243.473 376.07 242.963 376.28 242.363 376.28ZM244.043 378.47V395H240.623V378.47H244.043ZM256.873 378.2C258.173 378.2 259.333 378.47 260.353 379.01C261.393 379.55 262.203 380.35 262.783 381.41C263.363 382.47 263.653 383.75 263.653 385.25V395H260.263V385.76C260.263 384.28 259.893 383.15 259.153 382.37C258.413 381.57 257.403 381.17 256.123 381.17C254.843 381.17 253.823 381.57 253.063 382.37C252.323 383.15 251.953 384.28 251.953 385.76V395H248.533V378.47H251.953V380.36C252.513 379.68 253.223 379.15 254.083 378.77C254.963 378.39 255.893 378.2 256.873 378.2ZM112.074 426.26V435.41C112.074 436.03 112.214 436.48 112.494 436.76C112.794 437.02 113.294 437.15 113.994 437.15H116.094V440H113.394C111.854 440 110.674 439.64 109.854 438.92C109.034 438.2 108.624 437.03 108.624 435.41V426.26H106.674V423.47H108.624V419.36H112.074V423.47H116.094V426.26H112.074ZM122.666 425.87C123.166 425.03 123.826 424.38 124.646 423.92C125.486 423.44 126.476 423.2 127.616 423.2V426.74H126.746C125.406 426.74 124.386 427.08 123.686 427.76C123.006 428.44 122.666 429.62 122.666 431.3V440H119.246V423.47H122.666V425.87ZM129.62 431.66C129.62 430 129.96 428.53 130.64 427.25C131.34 425.97 132.28 424.98 133.46 424.28C134.66 423.56 135.98 423.2 137.42 423.2C138.72 423.2 139.85 423.46 140.81 423.98C141.79 424.48 142.57 425.11 143.15 425.87V423.47H146.6V440H143.15V437.54C142.57 438.32 141.78 438.97 140.78 439.49C139.78 440.01 138.64 440.27 137.36 440.27C135.94 440.27 134.64 439.91 133.46 439.19C132.28 438.45 131.34 437.43 130.64 436.13C129.96 434.81 129.62 433.32 129.62 431.66ZM143.15 431.72C143.15 430.58 142.91 429.59 142.43 428.75C141.97 427.91 141.36 427.27 140.6 426.83C139.84 426.39 139.02 426.17 138.14 426.17C137.26 426.17 136.44 426.39 135.68 426.83C134.92 427.25 134.3 427.88 133.82 428.72C133.36 429.54 133.13 430.52 133.13 431.66C133.13 432.8 133.36 433.8 133.82 434.66C134.3 435.52 134.92 436.18 135.68 436.64C136.46 437.08 137.28 437.3 138.14 437.3C139.02 437.3 139.84 437.08 140.6 436.64C141.36 436.2 141.97 435.56 142.43 434.72C142.91 433.86 143.15 432.86 143.15 431.72ZM149.952 431.72C149.952 430.02 150.292 428.53 150.972 427.25C151.672 425.95 152.632 424.95 153.852 424.25C155.072 423.55 156.472 423.2 158.052 423.2C160.052 423.2 161.702 423.68 163.002 424.64C164.322 425.58 165.212 426.93 165.672 428.69H161.982C161.682 427.87 161.202 427.23 160.542 426.77C159.882 426.31 159.052 426.08 158.052 426.08C156.652 426.08 155.532 426.58 154.692 427.58C153.872 428.56 153.462 429.94 153.462 431.72C153.462 433.5 153.872 434.89 154.692 435.89C155.532 436.89 156.652 437.39 158.052 437.39C160.032 437.39 161.342 436.52 161.982 434.78H165.672C165.192 436.46 164.292 437.8 162.972 438.8C161.652 439.78 160.012 440.27 158.052 440.27C156.472 440.27 155.072 439.92 153.852 439.22C152.632 438.5 151.672 437.5 150.972 436.22C150.292 434.92 149.952 433.42 149.952 431.72ZM175.62 431.75L183.24 440H178.62L172.5 432.89V440H169.08V417.8H172.5V430.7L178.5 423.47H183.24L175.62 431.75ZM187.431 421.28C186.811 421.28 186.291 421.07 185.871 420.65C185.451 420.23 185.241 419.71 185.241 419.09C185.241 418.47 185.451 417.95 185.871 417.53C186.291 417.11 186.811 416.9 187.431 416.9C188.031 416.9 188.541 417.11 188.961 417.53C189.381 417.95 189.591 418.47 189.591 419.09C189.591 419.71 189.381 420.23 188.961 420.65C188.541 421.07 188.031 421.28 187.431 421.28ZM189.111 423.47V440H185.691V423.47H189.111ZM201.942 423.2C203.242 423.2 204.402 423.47 205.422 424.01C206.462 424.55 207.272 425.35 207.852 426.41C208.432 427.47 208.722 428.75 208.722 430.25V440H205.332V430.76C205.332 429.28 204.962 428.15 204.222 427.37C203.482 426.57 202.472 426.17 201.192 426.17C199.912 426.17 198.892 426.57 198.132 427.37C197.392 428.15 197.022 429.28 197.022 430.76V440H193.602V423.47H197.022V425.36C197.582 424.68 198.292 424.15 199.152 423.77C200.032 423.39 200.962 423.2 201.942 423.2ZM219.744 423.2C221.024 423.2 222.154 423.46 223.134 423.98C224.134 424.48 224.914 425.11 225.474 425.87V423.47H228.924V440.27C228.924 441.79 228.604 443.14 227.964 444.32C227.324 445.52 226.394 446.46 225.174 447.14C223.974 447.82 222.534 448.16 220.854 448.16C218.614 448.16 216.754 447.63 215.274 446.57C213.794 445.53 212.954 444.11 212.754 442.31H216.144C216.404 443.17 216.954 443.86 217.794 444.38C218.654 444.92 219.674 445.19 220.854 445.19C222.234 445.19 223.344 444.77 224.184 443.93C225.044 443.09 225.474 441.87 225.474 440.27V437.51C224.894 438.29 224.104 438.95 223.104 439.49C222.124 440.01 221.004 440.27 219.744 440.27C218.304 440.27 216.984 439.91 215.784 439.19C214.604 438.45 213.664 437.43 212.964 436.13C212.284 434.81 211.944 433.32 211.944 431.66C211.944 430 212.284 428.53 212.964 427.25C213.664 425.97 214.604 424.98 215.784 424.28C216.984 423.56 218.304 423.2 219.744 423.2ZM225.474 431.72C225.474 430.58 225.234 429.59 224.754 428.75C224.294 427.91 223.684 427.27 222.924 426.83C222.164 426.39 221.344 426.17 220.464 426.17C219.584 426.17 218.764 426.39 218.004 426.83C217.244 427.25 216.624 427.88 216.144 428.72C215.684 429.54 215.454 430.52 215.454 431.66C215.454 432.8 215.684 433.8 216.144 434.66C216.624 435.52 217.244 436.18 218.004 436.64C218.784 437.08 219.604 437.3 220.464 437.3C221.344 437.3 222.164 437.08 222.924 436.64C223.684 436.2 224.294 435.56 224.754 434.72C225.234 433.86 225.474 432.86 225.474 431.72Z" fill="black"/>
<path d="M434.728 121.29C435.848 121.49 436.798 122.08 437.578 123.06C438.358 124.04 438.748 125.15 438.748 126.39C438.748 127.45 438.468 128.41 437.908 129.27C437.368 130.11 436.578 130.78 435.538 131.28C434.498 131.76 433.288 132 431.908 132H423.568V111.15H431.518C432.938 111.15 434.158 111.39 435.178 111.87C436.198 112.35 436.968 113 437.488 113.82C438.008 114.62 438.268 115.52 438.268 116.52C438.268 117.72 437.948 118.72 437.308 119.52C436.668 120.32 435.808 120.91 434.728 121.29ZM426.988 119.91H431.218C432.338 119.91 433.208 119.66 433.828 119.16C434.468 118.64 434.788 117.9 434.788 116.94C434.788 116 434.468 115.27 433.828 114.75C433.208 114.21 432.338 113.94 431.218 113.94H426.988V119.91ZM431.608 129.21C432.768 129.21 433.678 128.93 434.338 128.37C434.998 127.81 435.328 127.03 435.328 126.03C435.328 125.01 434.978 124.2 434.278 123.6C433.578 123 432.648 122.7 431.488 122.7H426.988V129.21H431.608ZM457.435 115.47V132H454.015V130.05C453.475 130.73 452.765 131.27 451.885 131.67C451.025 132.05 450.105 132.24 449.125 132.24C447.825 132.24 446.655 131.97 445.615 131.43C444.595 130.89 443.785 130.09 443.185 129.03C442.605 127.97 442.315 126.69 442.315 125.19V115.47H445.705V124.68C445.705 126.16 446.075 127.3 446.815 128.1C447.555 128.88 448.565 129.27 449.845 129.27C451.125 129.27 452.135 128.88 452.875 128.1C453.635 127.3 454.015 126.16 454.015 124.68V115.47H457.435ZM467.947 132.27C466.647 132.27 465.477 132.04 464.437 131.58C463.417 131.1 462.607 130.46 462.007 129.66C461.407 128.84 461.087 127.93 461.047 126.93H464.587C464.647 127.63 464.977 128.22 465.577 128.7C466.197 129.16 466.967 129.39 467.887 129.39C468.847 129.39 469.587 129.21 470.107 128.85C470.647 128.47 470.917 127.99 470.917 127.41C470.917 126.79 470.617 126.33 470.017 126.03C469.437 125.73 468.507 125.4 467.227 125.04C465.987 124.7 464.977 124.37 464.197 124.05C463.417 123.73 462.737 123.24 462.157 122.58C461.597 121.92 461.317 121.05 461.317 119.97C461.317 119.09 461.577 118.29 462.097 117.57C462.617 116.83 463.357 116.25 464.317 115.83C465.297 115.41 466.417 115.2 467.677 115.2C469.557 115.2 471.067 115.68 472.207 116.64C473.367 117.58 473.987 118.87 474.067 120.51H470.647C470.587 119.77 470.287 119.18 469.747 118.74C469.207 118.3 468.477 118.08 467.557 118.08C466.657 118.08 465.967 118.25 465.487 118.59C465.007 118.93 464.767 119.38 464.767 119.94C464.767 120.38 464.927 120.75 465.247 121.05C465.567 121.35 465.957 121.59 466.417 121.77C466.877 121.93 467.557 122.14 468.457 122.4C469.657 122.72 470.637 123.05 471.397 123.39C472.177 123.71 472.847 124.19 473.407 124.83C473.967 125.47 474.257 126.32 474.277 127.38C474.277 128.32 474.017 129.16 473.497 129.9C472.977 130.64 472.237 131.22 471.277 131.64C470.337 132.06 469.227 132.27 467.947 132.27ZM479.713 113.28C479.093 113.28 478.573 113.07 478.153 112.65C477.733 112.23 477.523 111.71 477.523 111.09C477.523 110.47 477.733 109.95 478.153 109.53C478.573 109.11 479.093 108.9 479.713 108.9C480.313 108.9 480.823 109.11 481.243 109.53C481.663 109.95 481.873 110.47 481.873 111.09C481.873 111.71 481.663 112.23 481.243 112.65C480.823 113.07 480.313 113.28 479.713 113.28ZM481.393 115.47V132H477.973V115.47H481.393ZM494.223 115.2C495.523 115.2 496.683 115.47 497.703 116.01C498.743 116.55 499.553 117.35 500.133 118.41C500.713 119.47 501.003 120.75 501.003 122.25V132H497.613V122.76C497.613 121.28 497.243 120.15 496.503 119.37C495.763 118.57 494.753 118.17 493.473 118.17C492.193 118.17 491.173 118.57 490.413 119.37C489.673 120.15 489.303 121.28 489.303 122.76V132H485.883V115.47H489.303V117.36C489.863 116.68 490.573 116.15 491.433 115.77C492.313 115.39 493.243 115.2 494.223 115.2ZM520.515 123.33C520.515 123.95 520.475 124.51 520.395 125.01H507.765C507.865 126.33 508.355 127.39 509.235 128.19C510.115 128.99 511.195 129.39 512.475 129.39C514.315 129.39 515.615 128.62 516.375 127.08H520.065C519.565 128.6 518.655 129.85 517.335 130.83C516.035 131.79 514.415 132.27 512.475 132.27C510.895 132.27 509.475 131.92 508.215 131.22C506.975 130.5 505.995 129.5 505.275 128.22C504.575 126.92 504.225 125.42 504.225 123.72C504.225 122.02 504.565 120.53 505.245 119.25C505.945 117.95 506.915 116.95 508.155 116.25C509.415 115.55 510.855 115.2 512.475 115.2C514.035 115.2 515.425 115.54 516.645 116.22C517.865 116.9 518.815 117.86 519.495 119.1C520.175 120.32 520.515 121.73 520.515 123.33ZM516.945 122.25C516.925 120.99 516.475 119.98 515.595 119.22C514.715 118.46 513.625 118.08 512.325 118.08C511.145 118.08 510.135 118.46 509.295 119.22C508.455 119.96 507.955 120.97 507.795 122.25H516.945ZM529.881 132.27C528.581 132.27 527.411 132.04 526.371 131.58C525.351 131.1 524.541 130.46 523.941 129.66C523.341 128.84 523.021 127.93 522.981 126.93H526.521C526.581 127.63 526.911 128.22 527.511 128.7C528.131 129.16 528.901 129.39 529.821 129.39C530.781 129.39 531.521 129.21 532.041 128.85C532.581 128.47 532.851 127.99 532.851 127.41C532.851 126.79 532.551 126.33 531.951 126.03C531.371 125.73 530.441 125.4 529.161 125.04C527.921 124.7 526.911 124.37 526.131 124.05C525.351 123.73 524.671 123.24 524.091 122.58C523.531 121.92 523.251 121.05 523.251 119.97C523.251 119.09 523.511 118.29 524.031 117.57C524.551 116.83 525.291 116.25 526.251 115.83C527.231 115.41 528.351 115.2 529.611 115.2C531.491 115.2 533.001 115.68 534.141 116.64C535.301 117.58 535.921 118.87 536.001 120.51H532.581C532.521 119.77 532.221 119.18 531.681 118.74C531.141 118.3 530.411 118.08 529.491 118.08C528.591 118.08 527.901 118.25 527.421 118.59C526.941 118.93 526.701 119.38 526.701 119.94C526.701 120.38 526.861 120.75 527.181 121.05C527.501 121.35 527.891 121.59 528.351 121.77C528.811 121.93 529.491 122.14 530.391 122.4C531.591 122.72 532.571 123.05 533.331 123.39C534.111 123.71 534.781 124.19 535.341 124.83C535.901 125.47 536.191 126.32 536.211 127.38C536.211 128.32 535.951 129.16 535.431 129.9C534.911 130.64 534.171 131.22 533.211 131.64C532.271 132.06 531.161 132.27 529.881 132.27ZM545.906 132.27C544.606 132.27 543.436 132.04 542.396 131.58C541.376 131.1 540.566 130.46 539.966 129.66C539.366 128.84 539.046 127.93 539.006 126.93H542.546C542.606 127.63 542.936 128.22 543.536 128.7C544.156 129.16 544.926 129.39 545.846 129.39C546.806 129.39 547.546 129.21 548.066 128.85C548.606 128.47 548.876 127.99 548.876 127.41C548.876 126.79 548.576 126.33 547.976 126.03C547.396 125.73 546.466 125.4 545.186 125.04C543.946 124.7 542.936 124.37 542.156 124.05C541.376 123.73 540.696 123.24 540.116 122.58C539.556 121.92 539.276 121.05 539.276 119.97C539.276 119.09 539.536 118.29 540.056 117.57C540.576 116.83 541.316 116.25 542.276 115.83C543.256 115.41 544.376 115.2 545.636 115.2C547.516 115.2 549.026 115.68 550.166 116.64C551.326 117.58 551.946 118.87 552.026 120.51H548.606C548.546 119.77 548.246 119.18 547.706 118.74C547.166 118.3 546.436 118.08 545.516 118.08C544.616 118.08 543.926 118.25 543.446 118.59C542.966 118.93 542.726 119.38 542.726 119.94C542.726 120.38 542.886 120.75 543.206 121.05C543.526 121.35 543.916 121.59 544.376 121.77C544.836 121.93 545.516 122.14 546.416 122.4C547.616 122.72 548.596 123.05 549.356 123.39C550.136 123.71 550.806 124.19 551.366 124.83C551.926 125.47 552.216 126.32 552.236 127.38C552.236 128.32 551.976 129.16 551.456 129.9C550.936 130.64 550.196 131.22 549.236 131.64C548.296 132.06 547.186 132.27 545.906 132.27ZM445.809 162.36C445.809 163.42 445.559 164.42 445.059 165.36C444.559 166.3 443.759 167.07 442.659 167.67C441.559 168.25 440.149 168.54 438.429 168.54H434.649V177H431.229V156.15H438.429C440.029 156.15 441.379 156.43 442.479 156.99C443.599 157.53 444.429 158.27 444.969 159.21C445.529 160.15 445.809 161.2 445.809 162.36ZM438.429 165.75C439.729 165.75 440.699 165.46 441.339 164.88C441.979 164.28 442.299 163.44 442.299 162.36C442.299 160.08 441.009 158.94 438.429 158.94H434.649V165.75H438.429ZM452.491 162.87C452.991 162.03 453.651 161.38 454.471 160.92C455.311 160.44 456.301 160.2 457.441 160.2V163.74H456.571C455.231 163.74 454.211 164.08 453.511 164.76C452.831 165.44 452.491 166.62 452.491 168.3V177H449.071V160.47H452.491V162.87ZM467.755 177.27C466.195 177.27 464.785 176.92 463.525 176.22C462.265 175.5 461.275 174.5 460.555 173.22C459.835 171.92 459.475 170.42 459.475 168.72C459.475 167.04 459.845 165.55 460.585 164.25C461.325 162.95 462.335 161.95 463.615 161.25C464.895 160.55 466.325 160.2 467.905 160.2C469.485 160.2 470.915 160.55 472.195 161.25C473.475 161.95 474.485 162.95 475.225 164.25C475.965 165.55 476.335 167.04 476.335 168.72C476.335 170.4 475.955 171.89 475.195 173.19C474.435 174.49 473.395 175.5 472.075 176.22C470.775 176.92 469.335 177.27 467.755 177.27ZM467.755 174.3C468.635 174.3 469.455 174.09 470.215 173.67C470.995 173.25 471.625 172.62 472.105 171.78C472.585 170.94 472.825 169.92 472.825 168.72C472.825 167.52 472.595 166.51 472.135 165.69C471.675 164.85 471.065 164.22 470.305 163.8C469.545 163.38 468.725 163.17 467.845 163.17C466.965 163.17 466.145 163.38 465.385 163.8C464.645 164.22 464.055 164.85 463.615 165.69C463.175 166.51 462.955 167.52 462.955 168.72C462.955 170.5 463.405 171.88 464.305 172.86C465.225 173.82 466.375 174.3 467.755 174.3ZM478.576 168.72C478.576 167.02 478.916 165.53 479.596 164.25C480.296 162.95 481.256 161.95 482.476 161.25C483.696 160.55 485.096 160.2 486.676 160.2C488.676 160.2 490.326 160.68 491.626 161.64C492.946 162.58 493.836 163.93 494.296 165.69H490.606C490.306 164.87 489.826 164.23 489.166 163.77C488.506 163.31 487.676 163.08 486.676 163.08C485.276 163.08 484.156 163.58 483.316 164.58C482.496 165.56 482.086 166.94 482.086 168.72C482.086 170.5 482.496 171.89 483.316 172.89C484.156 173.89 485.276 174.39 486.676 174.39C488.656 174.39 489.966 173.52 490.606 171.78H494.296C493.816 173.46 492.916 174.8 491.596 175.8C490.276 176.78 488.636 177.27 486.676 177.27C485.096 177.27 483.696 176.92 482.476 176.22C481.256 175.5 480.296 174.5 479.596 173.22C478.916 171.92 478.576 170.42 478.576 168.72ZM512.854 168.33C512.854 168.95 512.814 169.51 512.734 170.01H500.104C500.204 171.33 500.694 172.39 501.574 173.19C502.454 173.99 503.534 174.39 504.814 174.39C506.654 174.39 507.954 173.62 508.714 172.08H512.404C511.904 173.6 510.994 174.85 509.674 175.83C508.374 176.79 506.754 177.27 504.814 177.27C503.234 177.27 501.814 176.92 500.554 176.22C499.314 175.5 498.334 174.5 497.614 173.22C496.914 171.92 496.564 170.42 496.564 168.72C496.564 167.02 496.904 165.53 497.584 164.25C498.284 162.95 499.254 161.95 500.494 161.25C501.754 160.55 503.194 160.2 504.814 160.2C506.374 160.2 507.764 160.54 508.984 161.22C510.204 161.9 511.154 162.86 511.834 164.1C512.514 165.32 512.854 166.73 512.854 168.33ZM509.284 167.25C509.264 165.99 508.814 164.98 507.934 164.22C507.054 163.46 505.964 163.08 504.664 163.08C503.484 163.08 502.474 163.46 501.634 164.22C500.794 164.96 500.294 165.97 500.134 167.25H509.284ZM522.22 177.27C520.92 177.27 519.75 177.04 518.71 176.58C517.69 176.1 516.88 175.46 516.28 174.66C515.68 173.84 515.36 172.93 515.32 171.93H518.86C518.92 172.63 519.25 173.22 519.85 173.7C520.47 174.16 521.24 174.39 522.16 174.39C523.12 174.39 523.86 174.21 524.38 173.85C524.92 173.47 525.19 172.99 525.19 172.41C525.19 171.79 524.89 171.33 524.29 171.03C523.71 170.73 522.78 170.4 521.5 170.04C520.26 169.7 519.25 169.37 518.47 169.05C517.69 168.73 517.01 168.24 516.43 167.58C515.87 166.92 515.59 166.05 515.59 164.97C515.59 164.09 515.85 163.29 516.37 162.57C516.89 161.83 517.63 161.25 518.59 160.83C519.57 160.41 520.69 160.2 521.95 160.2C523.83 160.2 525.34 160.68 526.48 161.64C527.64 162.58 528.26 163.87 528.34 165.51H524.92C524.86 164.77 524.56 164.18 524.02 163.74C523.48 163.3 522.75 163.08 521.83 163.08C520.93 163.08 520.24 163.25 519.76 163.59C519.28 163.93 519.04 164.38 519.04 164.94C519.04 165.38 519.2 165.75 519.52 166.05C519.84 166.35 520.23 166.59 520.69 166.77C521.15 166.93 521.83 167.14 522.73 167.4C523.93 167.72 524.91 168.05 525.67 168.39C526.45 168.71 527.12 169.19 527.68 169.83C528.24 170.47 528.53 171.32 528.55 172.38C528.55 173.32 528.29 174.16 527.77 174.9C527.25 175.64 526.51 176.22 525.55 176.64C524.61 177.06 523.5 177.27 522.22 177.27ZM538.245 177.27C536.945 177.27 535.775 177.04 534.735 176.58C533.715 176.1 532.905 175.46 532.305 174.66C531.705 173.84 531.385 172.93 531.345 171.93H534.885C534.945 172.63 535.275 173.22 535.875 173.7C536.495 174.16 537.265 174.39 538.185 174.39C539.145 174.39 539.885 174.21 540.405 173.85C540.945 173.47 541.215 172.99 541.215 172.41C541.215 171.79 540.915 171.33 540.315 171.03C539.735 170.73 538.805 170.4 537.525 170.04C536.285 169.7 535.275 169.37 534.495 169.05C533.715 168.73 533.035 168.24 532.455 167.58C531.895 166.92 531.615 166.05 531.615 164.97C531.615 164.09 531.875 163.29 532.395 162.57C532.915 161.83 533.655 161.25 534.615 160.83C535.595 160.41 536.715 160.2 537.975 160.2C539.855 160.2 541.365 160.68 542.505 161.64C543.665 162.58 544.285 163.87 544.365 165.51H540.945C540.885 164.77 540.585 164.18 540.045 163.74C539.505 163.3 538.775 163.08 537.855 163.08C536.955 163.08 536.265 163.25 535.785 163.59C535.305 163.93 535.065 164.38 535.065 164.94C535.065 165.38 535.225 165.75 535.545 166.05C535.865 166.35 536.255 166.59 536.715 166.77C537.175 166.93 537.855 167.14 538.755 167.4C539.955 167.72 540.935 168.05 541.695 168.39C542.475 168.71 543.145 169.19 543.705 169.83C544.265 170.47 544.555 171.32 544.575 172.38C544.575 173.32 544.315 174.16 543.795 174.9C543.275 175.64 542.535 176.22 541.575 176.64C540.635 177.06 539.525 177.27 538.245 177.27ZM408.819 201.15V222H405.399V207.72L399.039 222H396.669L390.279 207.72V222H386.859V201.15H390.549L397.869 217.5L405.159 201.15H408.819ZM412.174 213.66C412.174 212 412.514 210.53 413.194 209.25C413.894 207.97 414.834 206.98 416.014 206.28C417.214 205.56 418.534 205.2 419.974 205.2C421.274 205.2 422.404 205.46 423.364 205.98C424.344 206.48 425.124 207.11 425.704 207.87V205.47H429.154V222H425.704V219.54C425.124 220.32 424.334 220.97 423.334 221.49C422.334 222.01 421.194 222.27 419.914 222.27C418.494 222.27 417.194 221.91 416.014 221.19C414.834 220.45 413.894 219.43 413.194 218.13C412.514 216.81 412.174 215.32 412.174 213.66ZM425.704 213.72C425.704 212.58 425.464 211.59 424.984 210.75C424.524 209.91 423.914 209.27 423.154 208.83C422.394 208.39 421.574 208.17 420.694 208.17C419.814 208.17 418.994 208.39 418.234 208.83C417.474 209.25 416.854 209.88 416.374 210.72C415.914 211.54 415.684 212.52 415.684 213.66C415.684 214.8 415.914 215.8 416.374 216.66C416.854 217.52 417.474 218.18 418.234 218.64C419.014 219.08 419.834 219.3 420.694 219.3C421.574 219.3 422.394 219.08 423.154 218.64C423.914 218.2 424.524 217.56 424.984 216.72C425.464 215.86 425.704 214.86 425.704 213.72ZM441.986 205.2C443.286 205.2 444.446 205.47 445.466 206.01C446.506 206.55 447.316 207.35 447.896 208.41C448.476 209.47 448.766 210.75 448.766 212.25V222H445.376V212.76C445.376 211.28 445.006 210.15 444.266 209.37C443.526 208.57 442.516 208.17 441.236 208.17C439.956 208.17 438.936 208.57 438.176 209.37C437.436 210.15 437.066 211.28 437.066 212.76V222H433.646V205.47H437.066V207.36C437.626 206.68 438.336 206.15 439.196 205.77C440.076 205.39 441.006 205.2 441.986 205.2ZM451.989 213.66C451.989 212 452.329 210.53 453.009 209.25C453.709 207.97 454.649 206.98 455.829 206.28C457.029 205.56 458.349 205.2 459.789 205.2C461.089 205.2 462.219 205.46 463.179 205.98C464.159 206.48 464.939 207.11 465.519 207.87V205.47H468.969V222H465.519V219.54C464.939 220.32 464.149 220.97 463.149 221.49C462.149 222.01 461.009 222.27 459.729 222.27C458.309 222.27 457.009 221.91 455.829 221.19C454.649 220.45 453.709 219.43 453.009 218.13C452.329 216.81 451.989 215.32 451.989 213.66ZM465.519 213.72C465.519 212.58 465.279 211.59 464.799 210.75C464.339 209.91 463.729 209.27 462.969 208.83C462.209 208.39 461.389 208.17 460.509 208.17C459.629 208.17 458.809 208.39 458.049 208.83C457.289 209.25 456.669 209.88 456.189 210.72C455.729 211.54 455.499 212.52 455.499 213.66C455.499 214.8 455.729 215.8 456.189 216.66C456.669 217.52 457.289 218.18 458.049 218.64C458.829 219.08 459.649 219.3 460.509 219.3C461.389 219.3 462.209 219.08 462.969 218.64C463.729 218.2 464.339 217.56 464.799 216.72C465.279 215.86 465.519 214.86 465.519 213.72ZM480.121 205.2C481.401 205.2 482.531 205.46 483.511 205.98C484.511 206.48 485.291 207.11 485.851 207.87V205.47H489.301V222.27C489.301 223.79 488.981 225.14 488.341 226.32C487.701 227.52 486.771 228.46 485.551 229.14C484.351 229.82 482.911 230.16 481.231 230.16C478.991 230.16 477.131 229.63 475.651 228.57C474.171 227.53 473.331 226.11 473.131 224.31H476.521C476.781 225.17 477.331 225.86 478.171 226.38C479.031 226.92 480.051 227.19 481.231 227.19C482.611 227.19 483.721 226.77 484.561 225.93C485.421 225.09 485.851 223.87 485.851 222.27V219.51C485.271 220.29 484.481 220.95 483.481 221.49C482.501 222.01 481.381 222.27 480.121 222.27C478.681 222.27 477.361 221.91 476.161 221.19C474.981 220.45 474.041 219.43 473.341 218.13C472.661 216.81 472.321 215.32 472.321 213.66C472.321 212 472.661 210.53 473.341 209.25C474.041 207.97 474.981 206.98 476.161 206.28C477.361 205.56 478.681 205.2 480.121 205.2ZM485.851 213.72C485.851 212.58 485.611 211.59 485.131 210.75C484.671 209.91 484.061 209.27 483.301 208.83C482.541 208.39 481.721 208.17 480.841 208.17C479.961 208.17 479.141 208.39 478.381 208.83C477.621 209.25 477.001 209.88 476.521 210.72C476.061 211.54 475.831 212.52 475.831 213.66C475.831 214.8 476.061 215.8 476.521 216.66C477.001 217.52 477.621 218.18 478.381 218.64C479.161 219.08 479.981 219.3 480.841 219.3C481.721 219.3 482.541 219.08 483.301 218.64C484.061 218.2 484.671 217.56 485.131 216.72C485.611 215.86 485.851 214.86 485.851 213.72ZM508.943 213.33C508.943 213.95 508.903 214.51 508.823 215.01H496.193C496.293 216.33 496.783 217.39 497.663 218.19C498.543 218.99 499.623 219.39 500.903 219.39C502.743 219.39 504.043 218.62 504.803 217.08H508.493C507.993 218.6 507.083 219.85 505.763 220.83C504.463 221.79 502.843 222.27 500.903 222.27C499.323 222.27 497.903 221.92 496.643 221.22C495.403 220.5 494.423 219.5 493.703 218.22C493.003 216.92 492.653 215.42 492.653 213.72C492.653 212.02 492.993 210.53 493.673 209.25C494.373 207.95 495.343 206.95 496.583 206.25C497.843 205.55 499.283 205.2 500.903 205.2C502.463 205.2 503.853 205.54 505.073 206.22C506.293 206.9 507.243 207.86 507.923 209.1C508.603 210.32 508.943 211.73 508.943 213.33ZM505.373 212.25C505.353 210.99 504.903 209.98 504.023 209.22C503.143 208.46 502.053 208.08 500.753 208.08C499.573 208.08 498.563 208.46 497.723 209.22C496.883 209.96 496.383 210.97 496.223 212.25H505.373ZM532.319 205.2C533.619 205.2 534.779 205.47 535.799 206.01C536.839 206.55 537.649 207.35 538.229 208.41C538.829 209.47 539.129 210.75 539.129 212.25V222H535.739V212.76C535.739 211.28 535.369 210.15 534.629 209.37C533.889 208.57 532.879 208.17 531.599 208.17C530.319 208.17 529.299 208.57 528.539 209.37C527.799 210.15 527.429 211.28 527.429 212.76V222H524.039V212.76C524.039 211.28 523.669 210.15 522.929 209.37C522.189 208.57 521.179 208.17 519.899 208.17C518.619 208.17 517.599 208.57 516.839 209.37C516.099 210.15 515.729 211.28 515.729 212.76V222H512.309V205.47H515.729V207.36C516.289 206.68 516.999 206.15 517.859 205.77C518.719 205.39 519.639 205.2 520.619 205.2C521.939 205.2 523.119 205.48 524.159 206.04C525.199 206.6 525.999 207.41 526.559 208.47C527.059 207.47 527.839 206.68 528.899 206.1C529.959 205.5 531.099 205.2 532.319 205.2ZM558.63 213.33C558.63 213.95 558.59 214.51 558.51 215.01H545.88C545.98 216.33 546.47 217.39 547.35 218.19C548.23 218.99 549.31 219.39 550.59 219.39C552.43 219.39 553.73 218.62 554.49 217.08H558.18C557.68 218.6 556.77 219.85 555.45 220.83C554.15 221.79 552.53 222.27 550.59 222.27C549.01 222.27 547.59 221.92 546.33 221.22C545.09 220.5 544.11 219.5 543.39 218.22C542.69 216.92 542.34 215.42 542.34 213.72C542.34 212.02 542.68 210.53 543.36 209.25C544.06 207.95 545.03 206.95 546.27 206.25C547.53 205.55 548.97 205.2 550.59 205.2C552.15 205.2 553.54 205.54 554.76 206.22C555.98 206.9 556.93 207.86 557.61 209.1C558.29 210.32 558.63 211.73 558.63 213.33ZM555.06 212.25C555.04 210.99 554.59 209.98 553.71 209.22C552.83 208.46 551.74 208.08 550.44 208.08C549.26 208.08 548.25 208.46 547.41 209.22C546.57 209.96 546.07 210.97 545.91 212.25H555.06ZM570.336 205.2C571.636 205.2 572.796 205.47 573.816 206.01C574.856 206.55 575.666 207.35 576.246 208.41C576.826 209.47 577.116 210.75 577.116 212.25V222H573.726V212.76C573.726 211.28 573.356 210.15 572.616 209.37C571.876 208.57 570.866 208.17 569.586 208.17C568.306 208.17 567.286 208.57 566.526 209.37C565.786 210.15 565.416 211.28 565.416 212.76V222H561.996V205.47H565.416V207.36C565.976 206.68 566.686 206.15 567.546 205.77C568.426 205.39 569.356 205.2 570.336 205.2ZM585.469 208.26V217.41C585.469 218.03 585.609 218.48 585.889 218.76C586.189 219.02 586.689 219.15 587.389 219.15H589.489V222H586.789C585.249 222 584.069 221.64 583.249 220.92C582.429 220.2 582.019 219.03 582.019 217.41V208.26H580.069V205.47H582.019V201.36H585.469V205.47H589.489V208.26H585.469Z" fill="black"/>
<path d="M450.012 588.15C452.232 588.15 454.172 588.58 455.832 589.44C457.512 590.28 458.802 591.5 459.702 593.1C460.622 594.68 461.082 596.53 461.082 598.65C461.082 600.77 460.622 602.61 459.702 604.17C458.802 605.73 457.512 606.93 455.832 607.77C454.172 608.59 452.232 609 450.012 609H443.202V588.15H450.012ZM450.012 606.21C452.452 606.21 454.322 605.55 455.622 604.23C456.922 602.91 457.572 601.05 457.572 598.65C457.572 596.23 456.922 594.34 455.622 592.98C454.322 591.62 452.452 590.94 450.012 590.94H446.622V606.21H450.012ZM463.332 600.66C463.332 599 463.672 597.53 464.352 596.25C465.052 594.97 465.992 593.98 467.172 593.28C468.372 592.56 469.692 592.2 471.132 592.2C472.432 592.2 473.562 592.46 474.522 592.98C475.502 593.48 476.282 594.11 476.862 594.87V592.47H480.312V609H476.862V606.54C476.282 607.32 475.492 607.97 474.492 608.49C473.492 609.01 472.352 609.27 471.072 609.27C469.652 609.27 468.352 608.91 467.172 608.19C465.992 607.45 465.052 606.43 464.352 605.13C463.672 603.81 463.332 602.32 463.332 600.66ZM476.862 600.72C476.862 599.58 476.622 598.59 476.142 597.75C475.682 596.91 475.072 596.27 474.312 595.83C473.552 595.39 472.732 595.17 471.852 595.17C470.972 595.17 470.152 595.39 469.392 595.83C468.632 596.25 468.012 596.88 467.532 597.72C467.072 598.54 466.842 599.52 466.842 600.66C466.842 601.8 467.072 602.8 467.532 603.66C468.012 604.52 468.632 605.18 469.392 605.64C470.172 606.08 470.992 606.3 471.852 606.3C472.732 606.3 473.552 606.08 474.312 605.64C475.072 605.2 475.682 604.56 476.142 603.72C476.622 602.86 476.862 601.86 476.862 600.72ZM488.794 595.26V604.41C488.794 605.03 488.934 605.48 489.214 605.76C489.514 606.02 490.014 606.15 490.714 606.15H492.814V609H490.114C488.574 609 487.394 608.64 486.574 607.92C485.754 607.2 485.344 606.03 485.344 604.41V595.26H483.394V592.47H485.344V588.36H488.794V592.47H492.814V595.26H488.794ZM494.826 600.66C494.826 599 495.166 597.53 495.846 596.25C496.546 594.97 497.486 593.98 498.666 593.28C499.866 592.56 501.186 592.2 502.626 592.2C503.926 592.2 505.056 592.46 506.016 592.98C506.996 593.48 507.776 594.11 508.356 594.87V592.47H511.806V609H508.356V606.54C507.776 607.32 506.986 607.97 505.986 608.49C504.986 609.01 503.846 609.27 502.566 609.27C501.146 609.27 499.846 608.91 498.666 608.19C497.486 607.45 496.546 606.43 495.846 605.13C495.166 603.81 494.826 602.32 494.826 600.66ZM508.356 600.72C508.356 599.58 508.116 598.59 507.636 597.75C507.176 596.91 506.566 596.27 505.806 595.83C505.046 595.39 504.226 595.17 503.346 595.17C502.466 595.17 501.646 595.39 500.886 595.83C500.126 596.25 499.506 596.88 499.026 597.72C498.566 598.54 498.336 599.52 498.336 600.66C498.336 601.8 498.566 602.8 499.026 603.66C499.506 604.52 500.126 605.18 500.886 605.64C501.666 606.08 502.486 606.3 503.346 606.3C504.226 606.3 505.046 606.08 505.806 605.64C506.566 605.2 507.176 604.56 507.636 603.72C508.116 602.86 508.356 601.86 508.356 600.72ZM398.819 633.15V654H395.399V639.72L389.039 654H386.669L380.279 639.72V654H376.859V633.15H380.549L387.869 649.5L395.159 633.15H398.819ZM402.174 645.66C402.174 644 402.514 642.53 403.194 641.25C403.894 639.97 404.834 638.98 406.014 638.28C407.214 637.56 408.534 637.2 409.974 637.2C411.274 637.2 412.404 637.46 413.364 637.98C414.344 638.48 415.124 639.11 415.704 639.87V637.47H419.154V654H415.704V651.54C415.124 652.32 414.334 652.97 413.334 653.49C412.334 654.01 411.194 654.27 409.914 654.27C408.494 654.27 407.194 653.91 406.014 653.19C404.834 652.45 403.894 651.43 403.194 650.13C402.514 648.81 402.174 647.32 402.174 645.66ZM415.704 645.72C415.704 644.58 415.464 643.59 414.984 642.75C414.524 641.91 413.914 641.27 413.154 640.83C412.394 640.39 411.574 640.17 410.694 640.17C409.814 640.17 408.994 640.39 408.234 640.83C407.474 641.25 406.854 641.88 406.374 642.72C405.914 643.54 405.684 644.52 405.684 645.66C405.684 646.8 405.914 647.8 406.374 648.66C406.854 649.52 407.474 650.18 408.234 650.64C409.014 651.08 409.834 651.3 410.694 651.3C411.574 651.3 412.394 651.08 413.154 650.64C413.914 650.2 414.524 649.56 414.984 648.72C415.464 647.86 415.704 646.86 415.704 645.72ZM431.986 637.2C433.286 637.2 434.446 637.47 435.466 638.01C436.506 638.55 437.316 639.35 437.896 640.41C438.476 641.47 438.766 642.75 438.766 644.25V654H435.376V644.76C435.376 643.28 435.006 642.15 434.266 641.37C433.526 640.57 432.516 640.17 431.236 640.17C429.956 640.17 428.936 640.57 428.176 641.37C427.436 642.15 427.066 643.28 427.066 644.76V654H423.646V637.47H427.066V639.36C427.626 638.68 428.336 638.15 429.196 637.77C430.076 637.39 431.006 637.2 431.986 637.2ZM441.989 645.66C441.989 644 442.329 642.53 443.009 641.25C443.709 639.97 444.649 638.98 445.829 638.28C447.029 637.56 448.349 637.2 449.789 637.2C451.089 637.2 452.219 637.46 453.179 637.98C454.159 638.48 454.939 639.11 455.519 639.87V637.47H458.969V654H455.519V651.54C454.939 652.32 454.149 652.97 453.149 653.49C452.149 654.01 451.009 654.27 449.729 654.27C448.309 654.27 447.009 653.91 445.829 653.19C444.649 652.45 443.709 651.43 443.009 650.13C442.329 648.81 441.989 647.32 441.989 645.66ZM455.519 645.72C455.519 644.58 455.279 643.59 454.799 642.75C454.339 641.91 453.729 641.27 452.969 640.83C452.209 640.39 451.389 640.17 450.509 640.17C449.629 640.17 448.809 640.39 448.049 640.83C447.289 641.25 446.669 641.88 446.189 642.72C445.729 643.54 445.499 644.52 445.499 645.66C445.499 646.8 445.729 647.8 446.189 648.66C446.669 649.52 447.289 650.18 448.049 650.64C448.829 651.08 449.649 651.3 450.509 651.3C451.389 651.3 452.209 651.08 452.969 650.64C453.729 650.2 454.339 649.56 454.799 648.72C455.279 647.86 455.519 646.86 455.519 645.72ZM470.121 637.2C471.401 637.2 472.531 637.46 473.511 637.98C474.511 638.48 475.291 639.11 475.851 639.87V637.47H479.301V654.27C479.301 655.79 478.981 657.14 478.341 658.32C477.701 659.52 476.771 660.46 475.551 661.14C474.351 661.82 472.911 662.16 471.231 662.16C468.991 662.16 467.131 661.63 465.651 660.57C464.171 659.53 463.331 658.11 463.131 656.31H466.521C466.781 657.17 467.331 657.86 468.171 658.38C469.031 658.92 470.051 659.19 471.231 659.19C472.611 659.19 473.721 658.77 474.561 657.93C475.421 657.09 475.851 655.87 475.851 654.27V651.51C475.271 652.29 474.481 652.95 473.481 653.49C472.501 654.01 471.381 654.27 470.121 654.27C468.681 654.27 467.361 653.91 466.161 653.19C464.981 652.45 464.041 651.43 463.341 650.13C462.661 648.81 462.321 647.32 462.321 645.66C462.321 644 462.661 642.53 463.341 641.25C464.041 639.97 464.981 638.98 466.161 638.28C467.361 637.56 468.681 637.2 470.121 637.2ZM475.851 645.72C475.851 644.58 475.611 643.59 475.131 642.75C474.671 641.91 474.061 641.27 473.301 640.83C472.541 640.39 471.721 640.17 470.841 640.17C469.961 640.17 469.141 640.39 468.381 640.83C467.621 641.25 467.001 641.88 466.521 642.72C466.061 643.54 465.831 644.52 465.831 645.66C465.831 646.8 466.061 647.8 466.521 648.66C467.001 649.52 467.621 650.18 468.381 650.64C469.161 651.08 469.981 651.3 470.841 651.3C471.721 651.3 472.541 651.08 473.301 650.64C474.061 650.2 474.671 649.56 475.131 648.72C475.611 647.86 475.851 646.86 475.851 645.72ZM498.943 645.33C498.943 645.95 498.903 646.51 498.823 647.01H486.193C486.293 648.33 486.783 649.39 487.663 650.19C488.543 650.99 489.623 651.39 490.903 651.39C492.743 651.39 494.043 650.62 494.803 649.08H498.493C497.993 650.6 497.083 651.85 495.763 652.83C494.463 653.79 492.843 654.27 490.903 654.27C489.323 654.27 487.903 653.92 486.643 653.22C485.403 652.5 484.423 651.5 483.703 650.22C483.003 648.92 482.653 647.42 482.653 645.72C482.653 644.02 482.993 642.53 483.673 641.25C484.373 639.95 485.343 638.95 486.583 638.25C487.843 637.55 489.283 637.2 490.903 637.2C492.463 637.2 493.853 637.54 495.073 638.22C496.293 638.9 497.243 639.86 497.923 641.1C498.603 642.32 498.943 643.73 498.943 645.33ZM495.373 644.25C495.353 642.99 494.903 641.98 494.023 641.22C493.143 640.46 492.053 640.08 490.753 640.08C489.573 640.08 488.563 640.46 487.723 641.22C486.883 641.96 486.383 642.97 486.223 644.25H495.373ZM522.319 637.2C523.619 637.2 524.779 637.47 525.799 638.01C526.839 638.55 527.649 639.35 528.229 640.41C528.829 641.47 529.129 642.75 529.129 644.25V654H525.739V644.76C525.739 643.28 525.369 642.15 524.629 641.37C523.889 640.57 522.879 640.17 521.599 640.17C520.319 640.17 519.299 640.57 518.539 641.37C517.799 642.15 517.429 643.28 517.429 644.76V654H514.039V644.76C514.039 643.28 513.669 642.15 512.929 641.37C512.189 640.57 511.179 640.17 509.899 640.17C508.619 640.17 507.599 640.57 506.839 641.37C506.099 642.15 505.729 643.28 505.729 644.76V654H502.309V637.47H505.729V639.36C506.289 638.68 506.999 638.15 507.859 637.77C508.719 637.39 509.639 637.2 510.619 637.2C511.939 637.2 513.119 637.48 514.159 638.04C515.199 638.6 515.999 639.41 516.559 640.47C517.059 639.47 517.839 638.68 518.899 638.1C519.959 637.5 521.099 637.2 522.319 637.2ZM548.63 645.33C548.63 645.95 548.59 646.51 548.51 647.01H535.88C535.98 648.33 536.47 649.39 537.35 650.19C538.23 650.99 539.31 651.39 540.59 651.39C542.43 651.39 543.73 650.62 544.49 649.08H548.18C547.68 650.6 546.77 651.85 545.45 652.83C544.15 653.79 542.53 654.27 540.59 654.27C539.01 654.27 537.59 653.92 536.33 653.22C535.09 652.5 534.11 651.5 533.39 650.22C532.69 648.92 532.34 647.42 532.34 645.72C532.34 644.02 532.68 642.53 533.36 641.25C534.06 639.95 535.03 638.95 536.27 638.25C537.53 637.55 538.97 637.2 540.59 637.2C542.15 637.2 543.54 637.54 544.76 638.22C545.98 638.9 546.93 639.86 547.61 641.1C548.29 642.32 548.63 643.73 548.63 645.33ZM545.06 644.25C545.04 642.99 544.59 641.98 543.71 641.22C542.83 640.46 541.74 640.08 540.44 640.08C539.26 640.08 538.25 640.46 537.41 641.22C536.57 641.96 536.07 642.97 535.91 644.25H545.06ZM560.336 637.2C561.636 637.2 562.796 637.47 563.816 638.01C564.856 638.55 565.666 639.35 566.246 640.41C566.826 641.47 567.116 642.75 567.116 644.25V654H563.726V644.76C563.726 643.28 563.356 642.15 562.616 641.37C561.876 640.57 560.866 640.17 559.586 640.17C558.306 640.17 557.286 640.57 556.526 641.37C555.786 642.15 555.416 643.28 555.416 644.76V654H551.996V637.47H555.416V639.36C555.976 638.68 556.686 638.15 557.546 637.77C558.426 637.39 559.356 637.2 560.336 637.2ZM575.469 640.26V649.41C575.469 650.03 575.609 650.48 575.889 650.76C576.189 651.02 576.689 651.15 577.389 651.15H579.489V654H576.789C575.249 654 574.069 653.64 573.249 652.92C572.429 652.2 572.019 651.03 572.019 649.41V640.26H570.069V637.47H572.019V633.36H575.469V637.47H579.489V640.26H575.469Z" fill="black"/>
<path d="M383 374.92C385.96 374.92 388.547 375.507 390.76 376.68C392.973 377.853 394.68 379.507 395.88 381.64C397.107 383.747 397.72 386.187 397.72 388.96C397.72 391.707 397.107 394.147 395.88 396.28C394.68 398.413 392.96 400.067 390.72 401.24C388.507 402.413 385.933 403 383 403H372.48V374.92H383ZM382.56 397.08C385.147 397.08 387.16 396.373 388.6 394.96C390.04 393.547 390.76 391.547 390.76 388.96C390.76 386.373 390.04 384.36 388.6 382.92C387.16 381.48 385.147 380.76 382.56 380.76H379.32V397.08H382.56ZM419.023 398.04H408.543L406.863 403H399.703L409.863 374.92H417.783L427.943 403H420.703L419.023 398.04ZM417.263 392.76L413.783 382.48L410.343 392.76H417.263ZM451.235 374.92V380.4H443.795V403H436.955V380.4H429.515V374.92H451.235ZM467.948 403.28C465.308 403.28 462.881 402.667 460.668 401.44C458.481 400.213 456.734 398.507 455.428 396.32C454.147 394.107 453.507 391.627 453.507 388.88C453.507 386.133 454.147 383.667 455.428 381.48C456.734 379.293 458.481 377.587 460.668 376.36C462.881 375.133 465.308 374.52 467.948 374.52C470.588 374.52 473.001 375.133 475.188 376.36C477.401 377.587 479.134 379.293 480.388 381.48C481.668 383.667 482.308 386.133 482.308 388.88C482.308 391.627 481.668 394.107 480.388 396.32C479.108 398.507 477.374 400.213 475.188 401.44C473.001 402.667 470.588 403.28 467.948 403.28ZM467.948 397.04C470.188 397.04 471.974 396.293 473.307 394.8C474.668 393.307 475.348 391.333 475.348 388.88C475.348 386.4 474.668 384.427 473.307 382.96C471.974 381.467 470.188 380.72 467.948 380.72C465.681 380.72 463.868 381.453 462.508 382.92C461.174 384.387 460.508 386.373 460.508 388.88C460.508 391.36 461.174 393.347 462.508 394.84C463.868 396.307 465.681 397.04 467.948 397.04ZM517.913 374.92V403H511.073V386.16L504.793 403H499.273L492.953 386.12V403H486.113V374.92H494.193L502.073 394.36L509.873 374.92H517.913ZM529.672 380.4V386.08H538.832V391.36H529.672V397.52H540.032V403H522.832V374.92H540.032V380.4H529.672Z" fill="black"/>
</svg>
